<?xml version="1.0" standalone="no"?>
<!DOCTYPE svg PUBLIC "-//W3C//DTD SVG 1.1//EN" "http://www.w3.org/Graphics/SVG/1.1/DTD/svg11.dtd" >
<svg>
<metadata>
Created by FontForge 20110222 at Mon Apr 14 14:05:04 2014
 By Orthosie Webhosting
Copyright (C) 1993 Emigre Graphics; Designed by Jonathan Barnbrook
</metadata>
<defs>
<font id="Mason" horiz-adv-x="575" >
  <font-face 
    font-family="Mason"
    font-weight="400"
    font-stretch="normal"
    units-per-em="1000"
    panose-1="2 11 5 0 0 0 0 0 0 0"
    ascent="800"
    descent="-200"
    x-height="446"
    cap-height="800"
    bbox="-11 -282 1322 895"
    underline-thickness="20"
    underline-position="-113"
    unicode-range="U+0020-2122"
  />
<missing-glyph horiz-adv-x="502" 
d="M-1 0h500v500h-500v-500zM9 10v480h480v-480h-480z" />
    <glyph glyph-name=".notdef" horiz-adv-x="502" 
d="M-1 0h500v500h-500v-500zM9 10v480h480v-480h-480z" />
    <glyph glyph-name="space" unicode=" " horiz-adv-x="278" 
 />
    <glyph glyph-name="exclam" unicode="!" horiz-adv-x="300" 
d="M200 568v8q-20 8 -37 24.5t-24 36.5h-8q-8 -20 -24.5 -37t-36.5 -24v-8q10 -3 20.5 -61t19.5 -136t15 -147t6 -83h8q0 15 6 84t15 146.5t20 135.5t20 61zM200 30v8q-20 8 -37 24.5t-24 36.5h-8q-8 -20 -24.5 -37t-36.5 -24v-8q20 -7 36 -23.5t25 -37.5h8q12 21 27 37.5
t34 23.5z" />
    <glyph glyph-name="quotedbl" unicode="&#x22;" horiz-adv-x="470" 
d="M200 568v8q-20 8 -37 24.5t-24 36.5h-8q-8 -20 -24.5 -37t-36.5 -24v-8q22 -8 38 -49t23 -122h8q7 80 23 121.5t38 49.5zM400 568v8q-20 8 -37 24.5t-24 36.5h-8q-8 -20 -24.5 -37t-36.5 -24v-8q22 -8 38 -49t23 -122h8q7 80 23 121.5t38 49.5z" />
    <glyph glyph-name="numbersign" unicode="#" horiz-adv-x="668" 
d="M622 177v51h-150l40 190h110v51h-100l42 200h-50l-42 -200h-215l42 200h-50l-42 -200h-162v-51h151l-40 -190h-111v-51h101l-42 -200h51l41 200h216l-43 -200h52l41 200h160zM462 418l-40 -189h-216l40 189h216z" />
    <glyph glyph-name="dollar" unicode="$" horiz-adv-x="530" 
d="M462 156q0 58 -34.5 100.5t-99.5 82.5v265q29 -9 52 -30.5t38 -59.5h8l-15 95q-22 0 -37 3.5t-35 10.5l-11 4v60h-38v-52q-18 2 -30 2t-32 -2v52h-38v-60q-51 -15 -79.5 -52.5t-28.5 -92.5q0 -43 29 -78.5t79 -68.5v-319q-41 11 -66 43.5t-37 89.5h-14l20 -128
q4 -2 12 -5q47 -20 85 -26v-55h38v51q6 -1 17 -1q26 0 45 4v-54h38v63q60 20 97 64t37 94zM290 361q-1 1 -9 6l-10 5l-13 8l-30 18v212q14 3 27 3q23 0 35 -1v-251zM190 425q-21 18 -33 38.5t-12 46.5q0 54 45 84v-169zM390 128q0 -69 -62 -100v219q32 -27 47 -55t15 -64z
M290 15q-23 -5 -45 -5h-17v303q33 -19 62 -38v-260z" />
    <glyph glyph-name="percent" unicode="%" horiz-adv-x="754" 
d="M378 497q0 62 -43.5 101t-107.5 39q-31 0 -59 -11.5t-48.5 -32.5t-32 -48t-11.5 -56q0 -62 43.5 -101.5t107.5 -39.5t107.5 44t43.5 105zM641 654h-41l-486 -681h41zM678 134q0 62 -43.5 101t-107.5 39q-31 0 -59 -11.5t-48.5 -32.5t-32 -48t-11.5 -56q0 -62 43.5 -101.5
t107.5 -39.5t107.5 44t43.5 105zM316 493v-8q1 -4 1 -8q0 -46 -22 -76.5t-58 -30.5q-41 0 -67.5 35t-32.5 88v7v6q0 47 22.5 77.5t58.5 30.5q41 0 67.5 -34.5t30.5 -86.5zM616 130v-8q1 -4 1 -8q0 -46 -22 -76.5t-58 -30.5q-41 0 -67.5 35t-32.5 88v7v6q0 47 22.5 77.5
t58.5 30.5q41 0 67.5 -34.5t30.5 -86.5z" />
    <glyph glyph-name="ampersand" unicode="&#x26;" horiz-adv-x="778" 
d="M658 245l-1 14q-5 58 -5 78v3q0 20 5 78l1 14l-13 -1q0 -6 -1 -11q-4 -37 -16.5 -51t-42.5 -14h-45q-87 0 -147 10t-95 29.5t-50 47.5t-15 67q0 44 27 72.5t65 28.5q45 0 72 -29.5t27 -72.5q0 -38 -22 -72l9 -10l78 86q-12 28 -24.5 49t-32.5 38.5t-50.5 27.5t-71.5 10
q-72 0 -113 -37.5t-41 -95.5q0 -50 27.5 -83t65.5 -49q-74 -16 -121.5 -62.5t-47.5 -109.5q0 -97 69 -156t190 -59q15 0 35 1.5t34.5 3t29.5 3.5t20 3v-19q0 -30 -14 -42.5t-51 -16.5q-5 -1 -11 -1l-1 -13l14 1q58 5 78 5h38q20 0 78 -5l14 -1l-1 13q-6 0 -11 1
q-37 4 -51 16.5t-14 42.5v345h59q30 0 42.5 -14t16.5 -51q1 -5 1 -11zM458 66l-1 -1q-32 -26 -62.5 -41.5t-77.5 -15.5q-78 0 -125 43t-47 110q0 36 15 65.5t40.5 51t57 33t63.5 11.5h137v-256z" />
    <glyph glyph-name="quotesingle" unicode="'" horiz-adv-x="300" 
d="M200 568v8q-20 8 -37 24.5t-24 36.5h-8q-8 -20 -24.5 -37t-36.5 -24v-8q22 -8 38 -49t23 -122h8q7 80 23 121.5t38 49.5z" />
    <glyph glyph-name="parenleft" unicode="(" horiz-adv-x="402" 
d="M336 -112q-35 40 -65.5 88.5t-54 106t-36.5 120.5t-13 128t13 128.5t36.5 120.5t54 106t65.5 88l-7 14q-48 -46 -88.5 -97.5t-72.5 -109.5t-50 -121.5t-18 -128.5t18 -128.5t49.5 -121.5t73 -110t88.5 -97z" />
    <glyph glyph-name="parenright" unicode=")" horiz-adv-x="402" 
d="M300 331q0 65 -18 128.5t-49.5 121.5t-73 110t-88.5 97l-7 -14q35 -40 65.5 -88t54 -105.5t36.5 -121t13 -128.5t-13 -128.5t-36.5 -120.5t-54 -106t-65.5 -88l7 -14q48 46 88.5 97.5t72.5 109.5t50 121.5t18 128.5z" />
    <glyph glyph-name="asterisk" unicode="*" horiz-adv-x="478" 
d="M428 443v10q-54 0 -88.5 9.5t-55.5 30.5t-30 55.5t-10 88.5h-10q0 -54 -9.5 -88.5t-30.5 -55.5t-55.5 -30t-88.5 -10v-10q54 0 88.5 -9.5t55.5 -30.5t30.5 -55.5t9.5 -88.5h10q0 54 9.5 88.5t30.5 55.5t55.5 30.5t88.5 9.5z" />
    <glyph glyph-name="plus" unicode="+" horiz-adv-x="667" 
d="M597 281v52h-238v238h-53v-238h-237v-52h237v-236h53v236h238z" />
    <glyph glyph-name="comma" unicode="," horiz-adv-x="300" 
d="M200 30v8q-20 8 -37 24.5t-24 36.5h-8q-8 -20 -24.5 -37t-36.5 -24v-8q29 -10 42 -27.5t13 -39.5q0 -33 -27 -71l11 -8q13 10 24.5 29.5t28.5 53.5q13 26 21.5 41t16.5 22z" />
    <glyph glyph-name="hyphen" unicode="-" horiz-adv-x="407" 
d="M367 284v46h-327v-46h327z" />
    <glyph glyph-name="period" unicode="." horiz-adv-x="300" 
d="M206 30v8q-21 8 -40 26.5t-27 40.5h-8q-8 -21 -26.5 -40t-40.5 -27v-8q22 -8 40 -26.5t27 -40.5h8q14 24 30.5 41.5t36.5 25.5z" />
    <glyph glyph-name="slash" unicode="/" horiz-adv-x="458" 
d="M420 637h-63l-318 -652h62z" />
    <glyph glyph-name="zero" unicode="0" horiz-adv-x="610" 
d="M520 321q0 70 -16.5 128.5t-46 100.5t-69 64.5t-83.5 22.5q-46 0 -85.5 -26.5t-68.5 -73.5t-45 -108t-16 -128q0 -70 16.5 -128.5t46 -100.5t69 -64.5t83.5 -22.5q46 0 85.5 26.5t68.5 73.5t45 108t16 128zM450 311q0 -8 1 -18v-18q0 -54 -9 -101.5t-26.5 -83
t-41.5 -55.5t-53 -20q-33 0 -61.5 22.5t-49.5 64t-34 95t-17 114.5v15l-1 14q0 56 9.5 104.5t27 85t42 57t53.5 20.5q33 0 61 -23t49.5 -63.5t34 -94.5t15.5 -115z" />
    <glyph glyph-name="one" unicode="1" horiz-adv-x="482" 
d="M352 -5l-1 13q-6 0 -11 1q-37 4 -51 16.5t-14 42.5v486q0 30 14 42.5t51 16.5q5 1 11 1l1 13l-14 -1q-58 -5 -78 -5h-38q-20 0 -78 5l-14 1l1 -13q6 0 11 -1q37 -4 51 -16.5t14 -42.5v-486q0 -30 -14 -42.5t-51 -16.5q-5 -1 -11 -1l-1 -13l14 1q58 5 78 5h38q20 0 78 -5z
" />
    <glyph glyph-name="two" unicode="2" horiz-adv-x="593" 
d="M513 -77l-1 14q-5 58 -5 78v38q0 20 5 78l1 14l-13 -1q0 -6 -1 -11q-4 -37 -16.5 -51t-42.5 -14h-273q25 29 90 92q49 47 83 82.5t65 75t49.5 79.5t18.5 77q0 76 -55.5 119.5t-138.5 43.5q-36 0 -71.5 -12.5t-64.5 -39t-46 -67t-17 -93.5q12 -3 33 -5t48 -4t42 -3t22 -1
l-1 13q-6 0 -11 1q-64 11 -64 67v5v6q4 46 36 77.5t79 31.5q60 0 95.5 -40.5t35.5 -104.5q0 -40 -17 -82t-46.5 -83.5t-62 -78t-84.5 -91.5q-73 -77 -105 -116l-3 -17h363q30 0 42.5 -14t16.5 -51q1 -5 1 -11z" />
    <glyph glyph-name="three" unicode="3" horiz-adv-x="570" 
d="M488 191q0 72 -43 122.5t-111 65.5q48 48 83 112t48 131h-259q-30 0 -42.5 14t-16.5 51q-1 5 -1 11l-13 1l1 -14q5 -58 5 -78v-38q0 -20 -5 -78l-1 -14l13 1q0 6 1 11q4 37 16.5 51t42.5 14h198q-14 -59 -58 -115t-117 -117q5 2 15.5 5.5t23.5 3.5q57 0 99.5 -39
t48.5 -107q0 -2 1 -10v-10q0 -66 -33 -109.5t-86 -43.5q-42 0 -76 24t-49 56q-12 26 -12 40q0 20 22 48l4 4q2 3 3 4l-8 10l-9 -11q-11 -12 -20 -23q-23 -27 -32 -35l-27 -27q-8 -9 -35 -32q-11 -9 -23 -20l-11 -9l10 -8q2 1 4 3q2 3 4 4q29 23 49 23q19 0 39 -19
q30 -28 68 -43.5t84 -15.5q44 0 81.5 16.5t65.5 45.5t43 66t15 78z" />
    <glyph glyph-name="four" unicode="4" horiz-adv-x="590" 
d="M502 91l-1 14q-5 58 -5 78v19q0 10 2 39q2 24 3 39l1 14l-13 -1q0 -6 -1 -11q-4 -37 -16.5 -51t-42.5 -14h-29v337q0 30 14 42.5t51 16.5q5 1 11 1l1 13l-14 -1q-58 -5 -78 -5h-40l-305 -453h292v-100q0 -30 -14 -42.5t-51 -16.5q-5 -1 -11 -1l-1 -13l14 1q58 5 78 5h38
q20 0 78 -5l14 -1l-1 13q-6 0 -11 1q-37 4 -51 16.5t-14 42.5v100h29q30 0 42.5 -14t16.5 -51q1 -5 1 -11zM332 217h-212l212 316v-316z" />
    <glyph glyph-name="five" unicode="5" horiz-adv-x="558" 
d="M468 191q0 43 -16 78.5t-44 61.5t-65.5 39.5t-79.5 13.5q-61 0 -111 -31l14 201h194q30 0 42.5 -14t16.5 -51q1 -5 1 -11l13 -1l-1 14q-5 58 -5 78v38q0 20 5 78l1 14l-13 -1q0 -6 -1 -11q-4 -37 -16.5 -51t-42.5 -14h-229l-20 -304l18 -18q18 17 49 27t63 10
q63 0 105 -47t49 -116q0 -5 1 -10v-10q0 -62 -34.5 -103t-90.5 -41q-37 0 -69 16.5t-51 55.5q-6 13 -6 25q0 30 46 53q4 2 5 2q3 1 5 2l-3 13q-17 -5 -55 -19.5t-79 -35.5q21 -67 77.5 -102t121.5 -35q44 0 81.5 16.5t65.5 45.5t43 66t15 78z" />
    <glyph glyph-name="six" unicode="6" horiz-adv-x="573" 
d="M495 175q0 40 -13.5 76t-38 64t-58 44t-72.5 16q-42 0 -81 -20.5t-60 -54.5q10 130 53.5 213.5t112.5 120.5q14 8 14 15q0 6 -9 6q-4 0 -9 -2q-43 -15 -83 -45t-73 -73.5t-54.5 -99.5t-27.5 -121q-2 -27 -2 -52q0 -131 60 -204t159 -73q77 0 129.5 53t52.5 137zM428 180
q-6 -72 -43.5 -120t-94.5 -48q-50 0 -81 42.5t-31 107.5q0 4 1 9v9q6 72 43.5 121t93.5 49q51 0 82 -43t31 -108q0 -5 -1 -9v-10z" />
    <glyph glyph-name="seven" unicode="7" horiz-adv-x="530" 
d="M488 622h-438v-53q0 -20 -5 -78l-1 -14l13 1q0 6 1 11q4 37 16.5 51t42.5 14h252l-86 -216q-34 -84 -59 -141t-43 -91t-32 -54.5t-29 -36.5q-13 -14 -13 -22q0 -5 6 -5q8 0 21 10q23 18 43.5 41t43.5 59t52.5 89.5t67.5 132.5z" />
    <glyph glyph-name="eight" unicode="8" 
d="M490 156q0 38 -15 68.5t-40.5 55.5t-56.5 45t-79 47l-4 2q-63 37 -92.5 65t-29.5 71q0 42 30.5 71.5t85.5 29.5q54 0 86.5 -35t32.5 -87q0 -36 -12.5 -63t-34.5 -47q-5 -5 -5 -8q0 -4 5 -4t13 4q35 17 62 52.5t27 71.5q0 30 -13.5 56t-37.5 45q-51 41 -124 41
q-32 0 -64 -10.5t-58 -30t-41 -49t-15 -65.5q0 -42 28 -77t76 -67q-54 -22 -86.5 -69.5t-32.5 -105.5q0 -30 12 -61t36.5 -58t62 -43t86.5 -16q40 0 76 14.5t63.5 39.5t43 55.5t15.5 61.5zM418 128q0 -49 -39 -80.5t-92 -31.5q-25 0 -51 10.5t-47 31t-33.5 49t-12.5 62.5
q0 53 28.5 94t73.5 56q3 -2 4 -2l3 -2q91 -51 128.5 -91t37.5 -96z" />
    <glyph glyph-name="nine" unicode="9" horiz-adv-x="573" 
d="M479 308q2 27 2 52q0 131 -60 204t-159 73q-77 0 -129.5 -53t-52.5 -137q0 -40 13.5 -76t38 -64t58 -44t72.5 -16q43 0 81.5 20.5t59.5 54.5q-10 -129 -53.5 -212.5t-112.5 -121.5q-14 -8 -14 -15q0 -6 9 -6q4 0 9 2q43 15 83 45t73 73.5t54.5 99.5t27.5 121zM396 442
q-6 -72 -43.5 -121t-93.5 -49q-51 0 -82 43.5t-31 107.5q0 5 1 10v9q6 72 43.5 120t94.5 48q50 0 81 -42.5t31 -106.5q0 -5 -1 -10v-9z" />
    <glyph glyph-name="colon" unicode=":" horiz-adv-x="300" 
d="M200 360v8q-20 8 -37 24.5t-24 36.5h-8q-8 -20 -24.5 -37t-36.5 -24v-8q20 -7 36 -23.5t25 -37.5h8q12 21 27 37.5t34 23.5zM200 30v8q-20 8 -37 24.5t-24 36.5h-8q-8 -20 -24.5 -37t-36.5 -24v-8q20 -7 36 -23.5t25 -37.5h8q12 21 27 37.5t34 23.5z" />
    <glyph glyph-name="semicolon" unicode=";" horiz-adv-x="300" 
d="M200 360v8q-20 8 -37 24.5t-24 36.5h-8q-8 -20 -24.5 -37t-36.5 -24v-8q20 -7 36 -23.5t25 -37.5h8q12 21 27 37.5t34 23.5zM200 30v8q-20 8 -37 24.5t-24 36.5h-8q-8 -20 -24.5 -37t-36.5 -24v-8q29 -10 42 -27.5t13 -39.5q0 -33 -27 -71l11 -8q13 10 24.5 29.5
t28.5 53.5q13 26 21.5 41t16.5 22z" />
    <glyph glyph-name="less" unicode="&#x3c;" horiz-adv-x="470" 
d="M400 568v8q-20 7 -36.5 24t-24.5 37h-8q-7 -20 -24 -36.5t-37 -24.5v-8q8 -7 16.5 -21.5t22.5 -41.5q15 -32 27 -52t25 -31l11 8q-27 38 -27 72q0 21 13 38.5t42 27.5zM200 568v8q-20 7 -36.5 24t-24.5 37h-8q-7 -20 -24 -36.5t-37 -24.5v-8q8 -7 16.5 -21.5t22.5 -41.5
q15 -32 27 -52t25 -31l11 8q-27 38 -27 72q0 21 13 38.5t42 27.5z" />
    <glyph glyph-name="equal" unicode="=" horiz-adv-x="667" 
d="M597 391v53h-527v-53h527zM597 163v53h-527v-53h527z" />
    <glyph glyph-name="greater" unicode="&#x3e;" horiz-adv-x="470" 
d="M400 568v8q-20 8 -37 24.5t-24 36.5h-8q-8 -20 -24.5 -37t-36.5 -24v-8q29 -10 42 -27.5t13 -38.5q0 -34 -27 -72l11 -8q13 11 24.5 30t28.5 53q13 26 21.5 41t16.5 22zM200 568v8q-20 8 -37 24.5t-24 36.5h-8q-8 -20 -24.5 -37t-36.5 -24v-8q29 -10 42 -27.5t13 -38.5
q0 -34 -27 -72l11 -8q13 11 24.5 30t28.5 53q13 26 21.5 41t16.5 22z" />
    <glyph glyph-name="question" unicode="?" horiz-adv-x="438" 
d="M386 461q0 79 -57 127.5t-145 48.5q-40 0 -66 -5.5t-63 -20.5q0 -1 1 -4q5 -45 5 -77v-14q-1 -12 -1 -15h11q13 62 33 86.5t80 24.5q27 0 50.5 -13t40.5 -34.5t26.5 -48.5t9.5 -54q0 -58 -48.5 -102t-127.5 -48l17 -160h10l10 81q3 20 13 31t48 25q63 23 108 70.5
t45 101.5zM222 30v8q-20 8 -37 24.5t-24 36.5h-8q-8 -20 -24.5 -37t-36.5 -24v-8q20 -7 36 -23.5t25 -37.5h8q12 21 27 37.5t34 23.5z" />
    <glyph glyph-name="at" unicode="@" horiz-adv-x="918" 
d="M775 197h-21q-41 -91 -115 -138t-173 -47q-56 0 -105.5 20.5t-86 58t-57 87.5t-20.5 107q0 65 23.5 123.5t65.5 102t97.5 68t117.5 24.5q48 0 89 -15t71 -42.5t46.5 -66t16.5 -84.5t-14 -87t-37 -71t-50.5 -47t-52.5 -17q-13 0 -20 5.5t-7 22.5q0 20 11 57l58 201l40 5
l-7 12h-81l-15 -49q-12 49 -63 49q-34 0 -70 -17t-66 -49t-47.5 -75.5t-17.5 -92.5q0 -43 18.5 -68.5t47.5 -25.5q37 0 74.5 24t68.5 77q-1 -9 -3 -25.5t-2 -26.5q0 -49 56 -49q41 0 78 19t65 53.5t43.5 80t15.5 95.5q0 53 -19 97.5t-53.5 76.5t-83 49.5t-106.5 17.5
q-72 0 -135.5 -26t-111 -73.5t-74 -110.5t-26.5 -134q0 -66 24 -123.5t67 -99.5t102 -65.5t127 -23.5q111 0 197.5 59t119.5 157zM536 408q0 -32 -13.5 -70t-36.5 -72t-50 -55t-52 -21q-17 0 -29.5 18t-12.5 45q0 38 13.5 75t36 66.5t48.5 47t50 17.5q20 0 33 -14t13 -37z
" />
    <glyph glyph-name="A" unicode="A" horiz-adv-x="706" 
d="M656 -6l-1 13q-6 0 -11 1q-37 4 -51 16.5t-14 42.5v17q0 96 -10.5 179t-36 156.5t-70 132t-109.5 97.5q-65 -39 -109.5 -97.5t-70 -132t-36 -156.5t-10.5 -179v-17q0 -30 -14 -42.5t-51 -16.5q-5 -1 -11 -1l-1 -13l14 1q58 5 78 5h38q20 0 78 -5l14 -1l-1 13q-6 0 -11 1
q-37 4 -51 16.5t-14 42.5v14q0 56 3 108h310q3 -51 3 -108v-14q0 -30 -14 -42.5t-51 -16.5q-5 -1 -11 -1l-1 -13l14 1q58 5 78 5h38q20 0 78 -5zM506 227h-306q13 165 52 263t101 133q62 -35 101 -133t52 -263z" />
    <glyph glyph-name="B" unicode="B" horiz-adv-x="680" 
d="M606 189q0 59 -38.5 103t-109.5 66q46 16 74 51.5t28 78.5q0 64 -56.5 102t-144.5 38l-279 -1l1 -13q6 0 11 -1q37 -4 51 -16.5t14 -42.5v-486q0 -30 -14 -42.5t-51 -16.5q-5 -1 -11 -1l-1 -13l14 1q58 5 78 5q34 0 94.5 -1t94.5 -1q65 0 112 16t76.5 43t43 61t13.5 70z
M491 479q0 -43 -32.5 -75t-99.5 -32h-134v232q14 1 38 2.5t38 1.5q101 0 145.5 -32.5t44.5 -96.5zM527 187q0 -68 -49 -115.5t-125 -47.5q-47 0 -70 3.5t-36 14.5t-17.5 35t-4.5 69v202h127q83 0 129 -45.5t46 -115.5z" />
    <glyph glyph-name="C" unicode="C" horiz-adv-x="735" 
d="M667 169h-17q-10 -91 -59 -126t-139 -35q-56 0 -106.5 21t-90 60t-63 93.5t-26.5 119.5q0 65 19 122t54 100t83 66.5t104 23.5q85 0 138 -31t76 -109h11l-7 128q-8 -5 -18 -5q-12 0 -43 12q-34 13 -66.5 20.5t-77.5 7.5q-76 0 -142 -26.5t-115 -73.5t-75.5 -108
t-26.5 -128q0 -70 27.5 -128.5t77 -100.5t115 -64.5t139.5 -22.5q57 0 120 15q30 7 54 16.5t38 19.5z" />
    <glyph glyph-name="D" unicode="D" horiz-adv-x="816" 
d="M736 323q0 67 -27.5 123t-77 96.5t-115 62t-139.5 21.5q-16 0 -61 -1t-70.5 -1.5t-44.5 -1.5t-29 -1q-20 0 -78 5l-14 1l1 -13q6 0 11 -1q37 -4 51 -16.5t14 -42.5v-486q0 -30 -14 -42.5t-51 -16.5q-5 -1 -11 -1l-1 -13l14 1q58 5 78 5q38 0 105 -1t100 -1
q76 0 142.5 25.5t115 71t75 104.5t26.5 123zM656 320q0 -59 -20.5 -113t-58.5 -95.5t-89.5 -65t-111.5 -23.5q-48 0 -77 4.5t-45.5 14.5t-22.5 26.5t-6 43.5v483q8 0 23.5 0.5t42.5 1.5t50.5 1.5t34.5 0.5q57 0 108.5 -20t90 -57t60 -88.5t21.5 -113.5z" />
    <glyph glyph-name="E" unicode="E" horiz-adv-x="596" 
d="M529 119l-17 -2q-17 -28 -28 -42t-24 -23t-31 -12.5t-46 -3.5h-107q-36 0 -43.5 8.5t-7.5 49.5v234h226v32h-226v228l178 -2q25 0 38 -2.5t21.5 -9t14 -20.5t12.5 -41h14l-19 108h-312q-20 0 -78 5l-14 1l1 -13q6 0 11 -1q37 -4 51 -16.5t14 -42.5v-486q0 -30 -14 -42.5
t-51 -16.5q-5 -1 -11 -1l-1 -13l14 1q58 5 78 5h156q15 0 45 -1t48.5 -1.5t38 -1.5t25.5 -1q3 10 6 23q5 25 12 45.5t26 54.5z" />
    <glyph glyph-name="F" unicode="F" horiz-adv-x="550" 
d="M502 513l-19 109l-311 -1q-20 0 -78 5l-14 1l1 -13q6 0 11 -1q37 -4 51 -16.5t14 -42.5v-486q0 -30 -14 -42.5t-51 -16.5q-5 -1 -11 -1l-1 -13l14 1q58 5 78 5h38q20 0 78 -5l14 -1l-1 13q-6 0 -11 1q-37 4 -51 16.5t-14 42.5v260h212v32h-212v228l150 -2h17
q31 0 44.5 -1.5t23 -8t15.5 -20.5t13 -43h14z" />
    <glyph glyph-name="G" unicode="G" horiz-adv-x="780" 
d="M739 273l-14 -1q-58 -5 -78 -5h-38q-15 0 -45.5 1.5t-53.5 3.5l-24 1l1 -13q16 0 21 -1q42 -4 64 -17t22 -42v-154q-29 -19 -65.5 -28.5t-76.5 -9.5q-56 0 -106.5 21t-90 60t-63 93.5t-26.5 119.5q0 65 19 122t54 100t83 66.5t104 23.5q84 0 144.5 -34t85.5 -108h14
l-23 129q-8 -5 -18 -5q-12 0 -44 12q-37 14 -69 21.5t-77 7.5q-76 0 -142 -26.5t-115 -73.5t-75.5 -108t-26.5 -128q0 -70 27.5 -128.5t77 -100.5t115 -64.5t139.5 -22.5q62 0 115 11.5t108 41.5v162q0 30 14 42.5t51 16.5q5 1 11 1z" />
    <glyph glyph-name="H" unicode="H" horiz-adv-x="816" 
d="M736 -5l-1 13q-6 0 -11 1q-37 4 -51 16.5t-14 42.5v486q0 30 14 42.5t51 16.5q5 1 11 1l1 13l-14 -1q-58 -5 -78 -5h-38q-20 0 -78 5l-14 1l1 -13q6 0 11 -1q37 -4 51 -16.5t14 -42.5v-162h-366v162q0 30 14 42.5t51 16.5q5 1 11 1l1 13l-14 -1q-58 -5 -78 -5h-38
q-20 0 -78 5l-14 1l1 -13q6 0 11 -1q37 -4 51 -16.5t14 -42.5v-486q0 -30 -14 -42.5t-51 -16.5q-5 -1 -11 -1l-1 -13l14 1q58 5 78 5h38q20 0 78 -5l14 -1l-1 13q-6 0 -11 1q-37 4 -51 16.5t-14 42.5v228h366v-228q0 -30 -14 -42.5t-51 -16.5q-5 -1 -11 -1l-1 -13l14 1
q58 5 78 5h38q20 0 78 -5zM591 328h-366v32h366v-32z" />
    <glyph glyph-name="I" unicode="I" horiz-adv-x="402" 
d="M266 731v8q-19 8 -36 25t-25 36h-8q-8 -19 -25 -36t-36 -25v-8q19 -8 36 -25t25 -36h8q8 19 25 36t36 25zM312 -5l-1 13q-6 0 -11 1q-37 4 -51 16.5t-14 42.5v486q0 30 14 42.5t51 16.5q5 1 11 1l1 13l-14 -1q-58 -5 -78 -5h-38q-20 0 -78 5l-14 1l1 -13q6 0 11 -1
q37 -4 51 -16.5t14 -42.5v-486q0 -30 -14 -42.5t-51 -16.5q-5 -1 -11 -1l-1 -13l14 1q58 5 78 5h38q20 0 78 -5z" />
    <glyph glyph-name="J" unicode="J" horiz-adv-x="402" 
d="M266 731v8q-19 8 -36 25t-25 36h-8q-8 -19 -25 -36t-36 -25v-8q19 -8 36 -25t25 -36h8q8 19 25 36t36 25zM312 627l-14 -1q-58 -5 -78 -5h-38q-20 0 -78 5l-14 1l1 -13q6 0 11 -1q37 -4 51 -16.5t14 -42.5v-784l68 94v690q0 30 14 42.5t51 16.5q5 1 11 1z" />
    <glyph glyph-name="K" unicode="K" horiz-adv-x="650" 
d="M932 -77q-35 -16 -89 -16t-99 16q-51 18 -97.5 51t-87 74t-72.5 80.5t-71 89.5q-41 54 -62.5 78.5t-36.5 25.5q60 42 102.5 86t86.5 113q3 5 9 14q21 35 41.5 54t60.5 24q5 1 11 1l1 13l-14 -1q-58 -5 -78 -5h-38q-20 0 -78 5l-14 1l1 -13q6 0 11 -1q34 -4 52.5 -11.5
t18.5 -24.5q0 -22 -27 -65.5t-69.5 -89t-88 -76.5t-80.5 -31v239q0 30 14 42.5t51 16.5q5 1 11 1l1 13l-14 -1q-58 -5 -78 -5h-38q-20 0 -78 5l-14 1l1 -13q6 0 11 -1q37 -4 51 -16.5t14 -42.5v-486q0 -30 -14 -42.5t-51 -16.5q-5 -1 -11 -1l-1 -13l14 1q58 5 78 5h38
q20 0 78 -5l14 -1l-1 13q-6 0 -11 1q-37 4 -51 16.5t-14 42.5v227q2 0 7 1q4 1 7 1q16 0 29 -6.5t21 -13.5q12 -10 54 -67q46 -62 88 -112.5t97 -100t122 -82t138 -32.5q55 0 96.5 12.5t47.5 27.5z" />
    <glyph glyph-name="L" unicode="L" horiz-adv-x="592" 
d="M565 146h-21l-32 -42q-20 -26 -32.5 -39t-24.5 -19t-28 -8t-47 -2h-104q-36 0 -43.5 8.5t-7.5 49.5v460q0 30 14 42.5t51 16.5q5 1 11 1l1 13l-14 -1q-58 -5 -78 -5h-38q-20 0 -78 5l-14 1l1 -13q6 0 11 -1q37 -4 51 -16.5t14 -42.5v-486q0 -30 -14 -42.5t-51 -16.5
q-5 -1 -11 -1l-1 -13l14 1q58 5 78 5h38q30 0 81.5 -1t88.5 -2.5t67 -2.5t42 -1q9 36 25.5 71.5t50.5 80.5z" />
    <glyph glyph-name="M" unicode="M" horiz-adv-x="957" 
d="M880 -5l-1 13q-6 0 -11 1q-37 4 -51 16.5t-14 42.5v486q0 30 14 42.5t51 16.5q5 1 11 1l1 13l-14 -1h-3q-31 -3 -59.5 -8t-81.5 -22l-242 -74l-242 74q-53 17 -80.5 22t-60.5 8h-3l-14 1l1 -13q6 0 11 -1q37 -4 51 -16.5t14 -42.5v-486q0 -30 -14 -42.5t-51 -16.5
q-5 -1 -11 -1l-1 -13l14 1q58 5 78 5h38q20 0 78 -5l14 -1l-1 13q-6 0 -11 1q-37 4 -51 16.5t-14 42.5v493l221 -68v-425q0 -30 -14 -42.5t-51 -16.5q-5 -1 -11 -1l-1 -13l14 1q58 5 78 5h38q20 0 78 -5l14 -1l-1 13q-6 0 -11 1q-37 4 -51 16.5t-14 42.5v425l221 68v-493
q0 -30 -14 -42.5t-51 -16.5q-5 -1 -11 -1l-1 -13l14 1q58 5 78 5h38q20 0 78 -5z" />
    <glyph glyph-name="N" unicode="N" horiz-adv-x="734" 
d="M689 -5l-1 13q-6 0 -11 1q-37 4 -51 16.5t-14 42.5v486q0 30 14 42.5t51 16.5q5 1 11 1l1 13l-14 -1q-58 -5 -78 -5h-425q-20 0 -78 5l-14 1l1 -13q6 0 11 -1q37 -4 51 -16.5t14 -42.5v-486q0 -30 -14 -42.5t-51 -16.5q-5 -1 -11 -1l-1 -13l14 1q58 5 78 5h38q20 0 78 -5
l14 -1l-1 13q-6 0 -11 1q-37 4 -51 16.5t-14 42.5v515h319v-515q0 -30 -14 -42.5t-51 -16.5q-5 -1 -11 -1l-1 -13l14 1q58 5 78 5h38q20 0 78 -5z" />
    <glyph glyph-name="O" unicode="O" horiz-adv-x="876" 
d="M798 321q0 70 -27.5 128.5t-77 100.5t-115 64.5t-139.5 22.5q-76 0 -142 -26.5t-115 -73.5t-75.5 -108t-26.5 -128q0 -70 27.5 -128.5t77 -100.5t115 -64.5t139.5 -22.5q76 0 142 26.5t115 73.5t75.5 108t26.5 128zM729 311q2 -17 2 -34q0 -55 -18.5 -102.5t-53 -83.5
t-83 -56t-106.5 -20q-66 0 -122.5 23t-99 63.5t-68 94.5t-31.5 115q-2 17 -2 34q0 55 18.5 102.5t53 83.5t83 56t106.5 20q66 0 122.5 -22.5t99 -63.5t68 -95t31.5 -115z" />
    <glyph glyph-name="P" unicode="P" horiz-adv-x="590" 
d="M547 470q0 67 -59.5 111.5t-159.5 44.5q-20 0 -42 -0.5t-60 -2.5q-45 -2 -54 -2q-15 0 -26.5 1l-34.5 3q-9 0 -17 1l-14 1l1 -13q6 0 11 -1q37 -4 51 -16.5t14 -42.5v-486q0 -30 -14 -42.5t-51 -16.5q-5 -1 -11 -1l-1 -13l14 1q58 5 78 5h38q20 0 78 -5l14 -1l-1 13
q-6 0 -11 1q-37 4 -51 16.5t-14 42.5v486q0 34 13 41.5t62 7.5q86 0 133.5 -45.5t47.5 -110.5q0 -38 -15.5 -69.5t-43 -54t-63 -34t-74.5 -11.5q-17 0 -25 1v-9q15 -3 34 -3q50 0 96 15t81.5 42t55.5 64.5t20 81.5z" />
    <glyph glyph-name="Q" unicode="Q" horiz-adv-x="876" 
d="M1322 -194q-36 -24 -78 -37t-101 -13q-64 0 -130 16.5t-130 43.5t-120.5 57.5t-135.5 75.5q-58 33 -88 49q57 15 105 46t82.5 74t53 95t18.5 108q0 70 -27.5 128.5t-77 100.5t-115 64.5t-139.5 22.5q-76 0 -142 -26.5t-115 -73.5t-75.5 -108t-26.5 -128q0 -65 24 -120.5
t68 -97t102 -66t125 -30.5q20 -8 31 -15q14 -11 88.5 -52.5t176.5 -87.5t218 -80t213 -34q41 0 77 9.5t62 24t41 29.5t16 25zM729 311q2 -17 2 -34q0 -55 -18.5 -102.5t-53 -83.5t-83 -56t-106.5 -20q-66 0 -122.5 23t-99 63.5t-68 94.5t-31.5 115q-2 17 -2 34
q0 55 18.5 102.5t53 83.5t83 56t106.5 20q66 0 122.5 -22.5t99 -63.5t68 -95t31.5 -115z" />
    <glyph glyph-name="R" unicode="R" horiz-adv-x="698" 
d="M1081 -89q-25 -11 -58 -18.5t-66 -7.5q-44 0 -80 13q-50 18 -100.5 50.5t-97 71.5t-84.5 76t-90 90q-43 44 -66 66t-40 33q67 24 107.5 73t40.5 112q0 67 -59.5 111.5t-159.5 44.5q-20 0 -42 -0.5t-60 -2.5q-45 -2 -54 -2q-15 0 -26.5 1l-34.5 3q-9 0 -17 1l-14 1l1 -13
q6 0 11 -1q37 -4 51 -16.5t14 -42.5v-486q0 -30 -14 -42.5t-51 -16.5q-5 -1 -11 -1l-1 -13l14 1q58 5 78 5h38q20 0 78 -5l14 -1l-1 13q-6 0 -11 1q-37 4 -51 16.5t-14 42.5v203h88q25 -11 58 -40.5t92 -88.5q63 -65 111 -109.5t105.5 -86t120 -67.5t124.5 -26q27 0 54 6
t49.5 15.5t36.5 19.5t17 17zM481 447q0 -52 -31 -91.5t-80 -60.5h-145v259q0 34 13 41.5t62 7.5q86 0 133.5 -45.5t47.5 -110.5z" />
    <glyph glyph-name="S" unicode="S" horiz-adv-x="530" 
d="M462 156q0 38 -15 68.5t-40.5 55.5t-56.5 45t-79 47l-4 2q-63 37 -92.5 65t-29.5 71q0 44 31 73.5t79 29.5q26 0 48 -3t43.5 -13t40 -30.5t31.5 -52.5h8l-15 95q-20 0 -35.5 3.5t-33.5 9.5q-22 8 -39.5 11.5t-42.5 3.5q-81 0 -129.5 -41.5t-48.5 -113.5q0 -50 38.5 -90
t103.5 -77q91 -51 128.5 -91t37.5 -96q0 -55 -41 -86.5t-104 -31.5q-68 0 -105 32.5t-53 106.5h-14l20 -128q3 -1 13 -5q32 -14 64 -22.5t75 -8.5q46 0 86 14t69.5 38.5t45.5 55.5t16 63z" />
    <glyph glyph-name="T" unicode="T" horiz-adv-x="640" 
d="M620 686h-12q-20 -42 -36 -53.5t-47 -11.5h-171v111q0 30 14 42.5t51 16.5q5 1 11 1l1 13l-14 -1q-58 -5 -78 -5h-38q-20 0 -78 5l-14 1l1 -13q6 0 11 -1q37 -4 51 -16.5t14 -42.5v-111h-158q-26 0 -36 4t-10 15q0 6 3 17h-15l-50 -139h12q20 42 36 53.5t47 11.5h171
v-515q0 -30 -14 -42.5t-51 -16.5q-5 -1 -11 -1l-1 -13l14 1q58 5 78 5h38q20 0 78 -5l14 -1l-1 13q-6 0 -11 1q-37 4 -51 16.5t-14 42.5v515h158q26 0 36 -4t10 -15q0 -6 -3 -17h15z" />
    <glyph glyph-name="U" unicode="U" horiz-adv-x="746" 
d="M696 628l-14 -1q-58 -5 -78 -5h-38q-20 0 -78 5l-14 1l1 -13q6 0 11 -1q37 -4 51 -16.5t14 -42.5v-14q0 -117 -14 -209.5t-38 -159t-56 -109t-70 -64.5q-37 21 -69 64t-56.5 110t-38.5 159t-14 209v14q0 30 14 42.5t51 16.5q5 1 11 1l1 13l-14 -1q-58 -5 -78 -5h-38
q-20 0 -78 5l-14 1l1 -13q6 0 11 -1q37 -4 51 -16.5t14 -42.5v-17q0 -93 13.5 -177t43 -157.5t76.5 -132.5t113 -98q66 39 113 98t76.5 132.5t43 157.5t13.5 177v17q0 30 14 42.5t51 16.5q5 1 11 1z" />
    <glyph glyph-name="V" unicode="V" horiz-adv-x="705" 
d="M685 627l-14 -1q-22 -2 -44 -3.5t-34 -1.5h-38q-21 0 -64 4q-5 0 -14 1l-14 1l1 -13q6 0 11 -1q33 -3 52.5 -14.5t19.5 -33.5q0 -10 -5 -23l-162 -423l-184 433q-4 10 -4 18q0 21 21.5 30.5t52.5 12.5q5 1 11 1l1 13l-14 -1q-23 -2 -52 -3.5t-44 -1.5h-38q-15 0 -44 1.5
t-52 3.5l-14 1l1 -13q6 0 11 -1q39 -4 57 -15t32 -44l240 -565h10l208 541q19 51 39 66q10 8 22 11.5t33 5.5q5 1 11 1z" />
    <glyph glyph-name="W" unicode="W" horiz-adv-x="1070" 
d="M1020 628l-14 -1q-58 -5 -78 -5h-38q-20 0 -78 5l-14 1l1 -13q6 0 11 -1q37 -4 51 -16.5t14 -42.5v-14q0 -234 -39.5 -366.5t-113.5 -175.5q-74 43 -113.5 175.5t-39.5 366.5v14q0 30 14 42.5t51 16.5q5 1 11 1l1 13l-14 -1q-58 -5 -78 -5h-38q-20 0 -78 5l-14 1l1 -13
q6 0 11 -1q37 -4 51 -16.5t14 -42.5v-14q0 -234 -39.5 -366.5t-113.5 -175.5q-74 43 -113.5 175.5t-39.5 366.5v14q0 30 14 42.5t51 16.5q5 1 11 1l1 13l-14 -1q-58 -5 -78 -5h-38q-20 0 -78 5l-14 1l1 -13q6 0 11 -1q37 -4 51 -16.5t14 -42.5v-17q0 -97 10 -179.5
t34.5 -156t68 -132t108.5 -97.5q70 42 116 112t71 160q25 -90 71 -160t116 -112q65 39 108.5 97.5t68 131.5t34.5 156t10 180v17q0 30 14 42.5t51 16.5q5 1 11 1z" />
    <glyph glyph-name="X" unicode="X" horiz-adv-x="725" 
d="M691 -5l-1 13q-6 0 -11 1q-30 3 -48 17.5t-35 37.5l-3 4l-195 264l174 222q21 26 41.5 41t53.5 18q5 1 11 1l1 13l-14 -1q-58 -5 -78 -5h-21q-20 0 -78 5l-14 1l1 -13q6 0 11 -1q23 -2 33.5 -11.5t10.5 -22.5t-9 -25l-148 -189l-139 189q-10 14 -10 27q0 27 45 32
q5 1 11 1l1 13l-14 -1q-58 -5 -78 -5h-59q-20 0 -78 5l-14 1l1 -13q6 0 11 -1q33 -3 55.5 -19.5t39.5 -39.5l182 -247l-188 -239q-19 -24 -40.5 -40t-54.5 -19q-5 -1 -11 -1l-1 -13l14 1q58 5 78 5h21q20 0 78 -5l14 -1l-1 13q-6 0 -11 1q-46 5 -46 32q0 13 11 27l162 206
l152 -206q9 -12 9 -23q0 -30 -53 -36q-5 -1 -11 -1l-1 -13l14 1q58 5 78 5h59q20 0 78 -5z" />
    <glyph glyph-name="Y" unicode="Y" horiz-adv-x="677" 
d="M667 627l-14 -1q-58 -5 -78 -5h-38q-20 0 -78 5l-14 1l1 -13q6 0 11 -1q31 -3 48 -10.5t17 -24.5q0 -12 -10 -28l-157 -252l-169 270q-7 11 -7 19q0 13 15.5 18t42.5 8h3q5 1 11 1l1 13l-14 -1q-24 -2 -49 -3.5t-39 -1.5h-38q-14 0 -39 1.5t-49 3.5l-14 1l1 -13
q6 0 11 -1q20 -2 32.5 -5.5t23 -11t22 -22t27.5 -40.5l182 -290v-176q0 -30 -14 -42.5t-51 -16.5q-5 -1 -11 -1l-1 -13l14 1q58 5 78 5h38q20 0 78 -5l14 -1l-1 13q-6 0 -11 1q-37 4 -51 16.5t-14 42.5v195l162 258q32 51 55.5 69.5t60.5 22.5q5 1 11 1z" />
    <glyph glyph-name="Z" unicode="Z" horiz-adv-x="650" 
d="M592 103h-12q-20 -42 -36 -53.5t-47 -11.5h-347l208 287h181l30 32h-188l179 245v19h-353q-26 0 -36 4t-10 15q0 6 3 17l-15 1l-50 -140h12q20 42 36 53.5t47 11.5h278l-164 -226h-176l-30 -32h183l-222 -304v-21h421q26 0 36 -4t10 -15q0 -6 -3 -17l15 -1z" />
    <glyph glyph-name="bracketleft" unicode="[" horiz-adv-x="402" 
d="M335 -108v20h-127v824h127v20h-195v-864h195z" />
    <glyph glyph-name="backslash" unicode="\" horiz-adv-x="458" 
d="M422 -15l-323 652h-63l323 -652h63z" />
    <glyph glyph-name="bracketright" unicode="]" horiz-adv-x="402" 
d="M262 -108v864h-195v-20h127v-824h-127v-20h195z" />
    <glyph glyph-name="asciicircum" unicode="^" horiz-adv-x="469" 
d="M451 322l-208 350h-15l-210 -350h46l171 286l171 -286h45z" />
    <glyph glyph-name="underscore" unicode="_" horiz-adv-x="500" 
d="M508 -216v41h-516v-41h516z" />
    <glyph glyph-name="grave" unicode="`" horiz-adv-x="333" 
d="M218 457l-51 169h-109l143 -169h17z" />
    <glyph glyph-name="a" unicode="a" 
d="M540 -5l-1 14q-6 0 -11 1q-35 4 -45 15.5t-10 43.5v6q-2 130 -48 231.5t-138 154.5q-91 -53 -137 -156t-48 -232v-4q0 -32 -10 -43.5t-45 -15.5q-5 -1 -11 -1l-1 -14l14 1q10 1 25 2q29 3 43 3h36q14 0 43 -3q15 -1 25 -2l14 -1l-1 14q-6 0 -11 1q-35 4 -45 15.5
t-10 43.5v4q0 21 2 59h235q2 -36 2 -57v-6q0 -32 -10 -43.5t-45 -15.5q-5 -1 -11 -1l-1 -14l14 1q10 1 25 2q29 3 43 3h36q14 0 43 -3q15 -1 25 -2zM402 165h-230q10 112 40 179.5t75 91.5q45 -25 75.5 -92.5t39.5 -178.5z" />
    <glyph glyph-name="b" unicode="b" horiz-adv-x="530" 
d="M469 135q0 41 -26 71.5t-74 47.5q31 13 49 37.5t18 53.5q0 45 -41.5 73t-106.5 28h-223l1 -13q6 0 11 -1q35 -4 45 -15.5t10 -43.5v-304q0 -32 -10 -43.5t-45 -15.5q-5 -1 -11 -1l-1 -14l14 1q10 1 25 2q29 3 43 3l143 -2q47 0 81.5 11.5t56 31t31.5 43.5t10 50zM377 338
q0 -29 -22 -50.5t-68 -21.5h-92v157q9 1 26 2t25 1q69 0 100 -22t31 -66zM402 134q0 -46 -33.5 -78.5t-85.5 -32.5q-32 0 -48 2t-24.5 10t-12 24t-3.5 46v139h87q57 0 88.5 -31t31.5 -79z" />
    <glyph glyph-name="c" unicode="c" horiz-adv-x="550" 
d="M494 124h-18q-7 -64 -41.5 -88t-98.5 -24q-40 0 -75.5 14.5t-63.5 41t-45 64t-19 82.5q0 45 13.5 84.5t38.5 69t59 46t74 16.5q61 0 98.5 -21.5t53.5 -75.5l14 -1l-7 98q-7 -4 -15 -4q-9 0 -33 9q-25 10 -48 16t-54 6q-55 0 -103.5 -19t-84 -53t-55 -78.5t-19.5 -92.5
q0 -51 20 -93t56 -72.5t84 -47t102 -16.5q40 0 86 13t69 29z" />
    <glyph glyph-name="d" unicode="d" horiz-adv-x="628" 
d="M563 229q0 47 -20 87t-56 68.5t-84 44t-102 15.5q-16 0 -55.5 -1t-61.5 -2q-28 0 -52.5 1.5t-52.5 3.5l-14 1l1 -14q6 0 11 -1q35 -4 45 -15.5t10 -43.5v-304q0 -32 -10 -43.5t-45 -15.5q-5 -1 -11 -1l-1 -14l14 1q10 1 25 2q29 3 43 3l154 -2q55 0 103.5 18.5t84 50.5
t55 74t19.5 87zM493 227q0 -41 -14.5 -78t-40.5 -65.5t-62 -45t-77 -16.5q-63 0 -83.5 12.5t-20.5 46.5v335q14 1 53 2t51 1q39 0 74.5 -13.5t62.5 -39t42 -61t15 -78.5z" />
    <glyph glyph-name="e" unicode="e" horiz-adv-x="460" 
d="M418 90l-22 -2q-21 -36 -37 -46.5t-53 -10.5h-77q-24 0 -29 5.5t-5 32.5v161h163v28h-163v154l125 -2q32 -1 41.5 -8.5t18.5 -41.5l16 -1l-17 82h-232q-14 0 -43 3q-15 1 -25 2l-14 1l1 -14q6 0 11 -1q35 -4 45 -15.5t10 -43.5v-304q0 -32 -10 -43.5t-45 -15.5
q-5 -1 -11 -1l-1 -14l14 1q10 1 25 2q29 3 43 3h119q5 0 51 -1.5t63 -1.5l3 10q5 21 11.5 37t23.5 45z" />
    <glyph glyph-name="f" unicode="f" horiz-adv-x="420" 
d="M396 359l-17 82h-232q-14 0 -43 3q-15 1 -25 2l-14 1l1 -14q6 0 11 -1q35 -4 45 -15.5t10 -43.5v-304q0 -32 -10 -43.5t-45 -15.5q-5 -1 -11 -1l-1 -14l14 1q10 1 25 2q29 3 43 3h33q14 0 43 -3q15 -1 25 -2l14 -1l-1 14q-6 0 -11 1q-35 4 -45 15.5t-10 43.5v161h163v28
h-163v154l125 -2q32 -1 41.5 -8.5t18.5 -41.5z" />
    <glyph glyph-name="g" unicode="g" horiz-adv-x="577" 
d="M553 199l-10 -1q-10 -1 -25 -2q-29 -3 -43 -3h-33q-14 0 -43 3q-15 1 -25 2l-14 1l1 -14q6 0 11 -1q35 -4 45 -15.5t10 -43.5v-92q-34 -21 -91 -21q-40 0 -75.5 14.5t-63.5 41t-45 64t-19 82.5q0 45 13.5 84.5t38.5 69t59 46t74 16.5q60 0 102.5 -23.5t60.5 -76.5h16
l-17 100q-7 -4 -15 -4q-10 0 -35 10q-26 10 -49 15.5t-54 5.5q-55 0 -103.5 -19t-84 -53t-55 -78.5t-19.5 -92.5q0 -51 20 -93t56 -72.5t84 -47t102 -16.5q20 0 43.5 4t47 11t42.5 15t30 15v95q0 32 10 43.5t45 15.5h7z" />
    <glyph glyph-name="h" unicode="h" horiz-adv-x="631" 
d="M566 -5l-1 14q-6 0 -11 1q-35 4 -45 15.5t-10 43.5v304q0 32 10 43.5t45 15.5q5 1 11 1l1 14l-14 -1q-10 -1 -25 -2q-29 -3 -43 -3h-33q-14 0 -43 3q-15 1 -25 2l-14 1l1 -14q6 0 11 -1q35 -4 45 -15.5t10 -43.5v-86h-241v86q0 32 10 43.5t45 15.5q5 1 11 1l1 14l-14 -1
q-10 -1 -25 -2q-29 -3 -43 -3h-33q-14 0 -43 3q-15 1 -25 2l-14 1l1 -14q6 0 11 -1q35 -4 45 -15.5t10 -43.5v-304q0 -32 -10 -43.5t-45 -15.5q-5 -1 -11 -1l-1 -14l14 1q10 1 25 2q29 3 43 3h33q14 0 43 -3q15 -1 25 -2l14 -1l-1 14q-6 0 -11 1q-35 4 -45 15.5t-10 43.5
v128h241v-128q0 -32 -10 -43.5t-45 -15.5q-5 -1 -11 -1l-1 -14l14 1q10 1 25 2q29 3 43 3h33q14 0 43 -3q15 -1 25 -2zM436 226h-241v32h241v-32z" />
    <glyph glyph-name="i" unicode="i" horiz-adv-x="345" 
d="M232 561v7q-18 7 -33.5 22.5t-22.5 33.5h-7q-7 -18 -22.5 -33.5t-33.5 -22.5v-7q18 -7 33.5 -22.5t22.5 -33.5h7q7 18 22.5 33.5t33.5 22.5zM271 -5l-1 14q-6 0 -11 1q-35 4 -45 15.5t-10 43.5v304q0 32 10 43.5t45 15.5q5 1 11 1l1 14l-14 -1q-10 -1 -25 -2
q-29 -3 -43 -3h-33q-14 0 -43 3q-15 1 -25 2l-14 1l1 -14q6 0 11 -1q35 -4 45 -15.5t10 -43.5v-304q0 -32 -10 -43.5t-45 -15.5q-5 -1 -11 -1l-1 -14l14 1q10 1 25 2q29 3 43 3h33q14 0 43 -3q15 -1 25 -2z" />
    <glyph glyph-name="j" unicode="j" horiz-adv-x="345" 
d="M232 561v7q-18 7 -33.5 22.5t-22.5 33.5h-7q-7 -18 -22.5 -33.5t-33.5 -22.5v-7q18 -7 33.5 -22.5t22.5 -33.5h7q7 18 22.5 33.5t33.5 22.5zM271 447l-14 -1q-10 -1 -25 -2q-29 -3 -43 -3h-33q-14 0 -43 3q-15 1 -25 2l-14 1l1 -14q6 0 11 -1q35 -4 45 -15.5t10 -43.5
v-534l63 74v460q0 32 10 43.5t45 15.5q5 1 11 1z" />
    <glyph glyph-name="k" unicode="k" horiz-adv-x="500" 
d="M707 -46q-31 -13 -72 -13q-38 0 -69 11q-36 12 -68.5 35.5t-60.5 52.5t-49 56.5t-49 66.5q-24 34 -38 51.5t-25 22.5q32 24 61.5 54.5t59.5 74.5q1 1 6 9q14 23 30 38.5t43 18.5q5 1 11 1l1 14l-14 -1q-10 -1 -25 -2q-29 -3 -43 -3h-13q-14 0 -43 3q-15 1 -25 2l-14 1
l1 -14q6 0 11 -1q31 -3 43 -9.5t12 -19.5q0 -15 -19 -44t-48.5 -59t-60.5 -51.5t-55 -22.5v147q0 32 10 43.5t45 15.5q5 1 11 1l1 14l-14 -1q-10 -1 -25 -2q-29 -3 -43 -3h-33q-14 0 -43 3q-15 1 -25 2l-14 1l1 -14q6 0 11 -1q35 -4 45 -15.5t10 -43.5v-304q0 -32 -10 -43.5
t-45 -15.5q-5 -1 -11 -1l-1 -14l14 1q10 1 25 2q29 3 43 3h33q14 0 43 -3q15 -1 25 -2l14 -1l-1 14q-6 0 -11 1q-35 4 -45 15.5t-10 43.5v137h5q3 1 5 1q17 0 28 -8q5 -4 31 -37q34 -45 64.5 -81.5t73 -74.5t93 -63t102.5 -25q42 0 73 10.5t37 25.5z" />
    <glyph glyph-name="l" unicode="l" horiz-adv-x="452" 
d="M443 108h-23l-24 -30q-14 -17 -22.5 -26.5t-17 -13.5t-20 -5.5t-33.5 -1.5h-74q-24 0 -29 5.5t-5 32.5v304q0 32 10 43.5t45 15.5q5 1 11 1l1 14l-14 -1q-10 -1 -25 -2q-29 -3 -43 -3h-33q-14 0 -43 3q-15 1 -25 2l-14 1l1 -14q6 0 11 -1q35 -4 45 -15.5t10 -43.5v-304
q0 -32 -10 -43.5t-45 -15.5q-5 -1 -11 -1l-1 -14l14 1q10 1 25 2q29 3 43 3h34q24 0 55.5 -0.5t65.5 -1.5t53 -1.5t28 -0.5q6 23 19.5 49.5t40.5 61.5z" />
    <glyph glyph-name="m" unicode="m" horiz-adv-x="743" 
d="M678 -5l-1 14q-6 0 -11 1q-35 4 -45 15.5t-10 43.5v304q0 32 10 43.5t45 15.5q5 1 11 1l1 14l-14 -1q-53 -5 -68 -9l-225 -58l-224 58q-19 5 -68 9l-14 1l1 -14q6 0 11 -1q35 -4 45 -15.5t10 -43.5v-304q0 -32 -10 -43.5t-45 -15.5q-5 -1 -11 -1l-1 -14l14 1q10 1 25 2
q29 3 43 3h33q14 0 43 -3q15 -1 25 -2l6 -1l-1 15h-3q-35 4 -45 15.5t-10 43.5v320l145 -38v-282q0 -32 -10 -43.5t-45 -15.5h-3l-1 -15l6 1q10 1 25 2q29 3 43 3h33q14 0 43 -3q15 -1 25 -2l6 -1l-1 15h-3q-35 4 -45 15.5t-10 43.5v282l145 38v-320q0 -32 -10 -43.5
t-45 -15.5h-3l-1 -15l6 1q10 1 25 2q29 3 43 3h33q14 0 43 -3q15 -1 25 -2z" />
    <glyph glyph-name="n" unicode="n" horiz-adv-x="605" 
d="M540 -5l-1 14q-6 0 -11 1q-35 4 -45 15.5t-10 43.5v304q0 32 10 43.5t45 15.5q5 1 11 1l1 14l-14 -1q-10 -1 -25 -2q-29 -3 -43 -3h-311q-14 0 -43 3q-15 1 -25 2l-14 1l1 -14q6 0 11 -1q35 -4 45 -15.5t10 -43.5v-304q0 -32 -10 -43.5t-45 -15.5q-5 -1 -11 -1l-1 -14
l14 1q10 1 25 2q29 3 43 3h33q14 0 43 -3q15 -1 25 -2l14 -1l-1 14q-6 0 -11 1q-35 4 -45 15.5t-10 43.5v339h215v-339q0 -32 -10 -43.5t-45 -15.5q-5 -1 -11 -1l-1 -14l14 1q10 1 25 2q29 3 43 3h33q14 0 43 -3q15 -1 25 -2z" />
    <glyph glyph-name="o" unicode="o" horiz-adv-x="653" 
d="M588 228q0 51 -20 93.5t-56 72.5t-83.5 46.5t-101.5 16.5q-55 0 -103.5 -19t-84 -53t-55 -78.5t-19.5 -92.5q0 -51 20 -93t56 -72.5t84 -47t102 -16.5q56 0 104 19t83.5 53.5t54.5 78.5t19 92zM525 221q0 -4 1 -11v-11q0 -78 -49 -130.5t-129 -52.5q-45 0 -83.5 16
t-67 44.5t-46 65.5t-22.5 79q0 4 -1 11v11q0 78 49.5 130t128.5 52q90 0 149.5 -58.5t69.5 -145.5z" />
    <glyph glyph-name="p" unicode="p" horiz-adv-x="460" 
d="M427 332q0 47 -43.5 79.5t-117.5 32.5q-34 0 -59 -1t-38 -1q-10 -1 -15 -1h-7q-14 0 -43 3q-15 1 -25 2l-14 1l1 -14q6 0 11 -1q35 -4 45 -15.5t10 -43.5v-304q0 -32 -10 -43.5t-45 -15.5q-5 -1 -11 -1l-1 -14l14 1q10 1 25 2q29 3 43 3h33q14 0 43 -3q15 -1 25 -2l14 -1
l-1 14q-6 0 -11 1q-35 4 -45 15.5t-10 43.5v322q0 22 8 26.5t40 4.5q57 0 88.5 -31t31.5 -75q0 -52 -38 -83.5t-92 -31.5h-13v-13q10 -1 21 -1q37 0 71 10.5t59.5 30t40.5 46.5t15 58z" />
    <glyph glyph-name="q" unicode="q" horiz-adv-x="653" 
d="M965 -126q-30 -20 -61 -29.5t-73 -9.5q-87 0 -172 35.5t-203 101.5q-31 18 -45 25q80 25 128.5 88.5t48.5 142.5q0 51 -20 93.5t-56 72.5t-83.5 46.5t-101.5 16.5q-55 0 -103.5 -19t-84 -53t-55 -78.5t-19.5 -92.5q0 -51 19.5 -92.5t53.5 -71t78 -46t92 -19.5
q12 -9 66.5 -38.5t129.5 -62.5t160 -57t155 -24q58 0 100 24t46 47zM533 221q0 -3 1 -12v-11q0 -78 -51 -130t-134 -52q-47 0 -87 16t-70 44.5t-48 65.5t-23 79q0 3 -1 12v11q0 78 51 129.5t134 51.5q47 0 87 -15.5t70 -44t48 -65.5t23 -79z" />
    <glyph glyph-name="r" unicode="r" horiz-adv-x="515" 
d="M805 -67q-31 -13 -72 -13q-38 0 -69 11q-34 12 -69.5 34.5t-68 50t-58.5 54t-62 63.5q-56 59 -74 72q38 15 66.5 48t28.5 79q0 47 -43.5 79.5t-117.5 32.5q-34 0 -59 -1t-38 -1q-10 -1 -15 -1h-7q-14 0 -43 3q-15 1 -25 2l-14 1l1 -14q6 0 11 -1q35 -4 45 -15.5t10 -43.5
v-304q0 -32 -10 -43.5t-45 -15.5q-5 -1 -11 -1l-1 -14l14 1q10 1 25 2q29 3 43 3h33q14 0 43 -3q15 -1 25 -2l14 -1l-1 14q-6 0 -11 1q-35 4 -45 15.5t-10 43.5v118h63q17 -6 23 -12q7 -6 35 -35q42 -46 78.5 -81.5t86 -73.5t105 -63t109.5 -25q42 0 73 10.5t37 25.5z
M363 316q0 -39 -22 -66.5t-58 -40.5h-88v182q0 22 8 26.5t40 4.5q57 0 88.5 -31t31.5 -75z" />
    <glyph glyph-name="s" unicode="s" horiz-adv-x="397" 
d="M343 115q0 53 -34 85t-105 71l-14 8q-39 22 -57 38.5t-18 42.5q0 31 21.5 52t54.5 21q37 0 68 -15.5t48 -57.5h12l-13 72q-15 0 -26.5 3t-25.5 9q-15 6 -28 9.5t-31 3.5q-60 0 -95.5 -31.5t-35.5 -86.5q0 -37 28 -67t76 -57q66 -36 92 -60t26 -61q0 -39 -29 -61.5
t-73 -22.5q-47 0 -74 24.5t-39 76.5h-14l16 -94q3 -1 13 -6q23 -11 46 -18.5t52 -7.5q34 0 63.5 10.5t51.5 29.5q44 38 44 90z" />
    <glyph glyph-name="t" unicode="t" horiz-adv-x="456" 
d="M449 486h-15q-14 -28 -26 -36.5t-32 -8.5h-116v56q0 32 10 43.5t45 15.5q5 1 11 1l1 14l-14 -1q-10 -1 -25 -2q-29 -3 -43 -3h-33q-14 0 -43 3q-15 1 -25 2l-14 1l1 -14q6 0 11 -1q35 -4 45 -15.5t10 -43.5v-56h-107q-29 0 -29 12q0 4 2 13h-17l-39 -103h15
q13 28 25.5 36.5t33.5 8.5h116v-339q0 -32 -10 -43.5t-45 -15.5q-5 -1 -11 -1l-1 -14l14 1q10 1 25 2q29 3 43 3h33q14 0 43 -3q15 -1 25 -2l14 -1l-1 14q-6 0 -11 1q-35 4 -45 15.5t-10 43.5v339h106q17 0 23 -2t6 -10q0 -4 -2 -13h16z" />
    <glyph glyph-name="u" unicode="u" 
d="M540 447l-14 -1q-10 -1 -25 -2q-29 -3 -43 -3h-36q-14 0 -43 3q-15 1 -25 2l-14 1l1 -14q6 0 11 -1q35 -4 45 -15.5t10 -43.5v-4q-1 -153 -33 -243t-86 -120q-53 30 -85.5 119.5t-34.5 241.5v6q0 32 10 43.5t45 15.5q5 1 11 1l1 14l-14 -1q-10 -1 -25 -2q-29 -3 -43 -3
h-36q-14 0 -43 3q-15 1 -25 2l-14 1l1 -14q6 0 11 -1q35 -4 45 -15.5t10 -43.5v-6q2 -130 48 -231.5t138 -154.5q91 54 137 156.5t48 231.5v4q0 32 10 43.5t45 15.5q5 1 11 1z" />
    <glyph glyph-name="v" unicode="v" horiz-adv-x="506" 
d="M496 446l-14 -2q-2 0 -12 -1q-33 -2 -44 -2h-27q-17 0 -49 2q-5 1 -8 1l-13 2l1 -16q7 0 10 -1q22 -2 35.5 -9.5t13.5 -21.5q0 -7 -3 -15l-109 -280l-121 277q-3 7 -3 14q0 15 14 24t33 11q3 1 10 1l2 16l-14 -2q-16 -1 -37 -2t-32 -1h-36q-10 0 -31.5 1t-38.5 2l-13 2
l1 -16q7 0 10 -1q26 -2 40 -12.5t26 -36.5l169 -387h11l152 380q13 33 26 43.5t39 12.5q3 1 10 1z" />
    <glyph glyph-name="w" unicode="w" horiz-adv-x="820" 
d="M785 447l-14 -1q-10 -1 -25 -2q-29 -3 -43 -3h-36q-14 0 -43 3q-15 1 -25 2l-14 1l1 -14q6 0 11 -1q35 -4 45 -15.5t10 -43.5v-4q-1 -159 -27 -247t-77 -116q-51 28 -77 116t-28 245v6q0 32 10 43.5t45 15.5q5 1 11 1l1 14l-14 -1q-10 -1 -25 -2q-29 -3 -43 -3h-36
q-14 0 -43 3q-15 1 -25 2l-14 1l1 -14q6 0 11 -1q35 -4 45 -15.5t10 -43.5v-4q-1 -159 -27 -247t-77 -116q-51 28 -77 116t-28 245v6q0 32 10 43.5t45 15.5q5 1 11 1l1 14l-14 -1q-10 -1 -25 -2q-29 -3 -43 -3h-36q-14 0 -43 3q-15 1 -25 2l-14 1l1 -14q6 0 11 -1
q35 -4 45 -15.5t10 -43.5v-6q1 -64 10.5 -121.5t29 -107.5t52 -90t79.5 -67q50 29 83.5 73.5t53.5 101.5q20 -57 53.5 -101.5t84.5 -73.5q46 27 78.5 67.5t52.5 90.5t29 107.5t10 122.5v4q0 32 10 43.5t45 15.5q5 1 11 1z" />
    <glyph glyph-name="x" unicode="x" horiz-adv-x="538" 
d="M531 -5l-1 14q-6 0 -11 1q-33 3 -54 18.5t-40 40.5l-125 169l109 135q20 25 41.5 40.5t54.5 18.5q5 1 11 1l1 14l-14 -1q-10 -1 -25 -2q-29 -3 -43 -3h-13q-14 0 -43 3q-15 1 -25 2l-14 1l1 -14q6 0 11 -1q32 -3 32 -22q0 -14 -19 -37l-86 -106l-78 106q-20 27 -20 39
q0 17 34 20q5 1 11 1l1 14l-14 -1q-10 -1 -25 -2q-29 -3 -43 -3h-41q-14 0 -43 3q-15 1 -25 2l-14 1l1 -14q6 0 11 -1q32 -3 51 -19.5t46 -52.5l3 -4l104 -140l-119 -147q-22 -27 -42 -41.5t-53 -17.5q-5 -1 -11 -1l-1 -14l14 1q10 1 25 2q29 3 43 3h13q14 0 43 -3
q15 -1 25 -2l14 -1l-1 14q-6 0 -11 1q-34 4 -34 21q0 13 20 38l96 118l88 -118l1 -1q10 -14 15 -23t5 -16q0 -16 -29 -19q-5 -1 -11 -1l-1 -14l14 1q5 0 10 1q48 4 65 4h33q14 0 43 -3q15 -1 25 -2z" />
    <glyph glyph-name="y" unicode="y" horiz-adv-x="506" 
d="M506 447l-14 -1q-10 -1 -25 -2q-29 -3 -43 -3h-8q-14 0 -43 3q-15 1 -25 2l-14 1l1 -14q6 0 11 -1q42 -4 42 -27q0 -12 -13 -32l-94 -146l-98 146l-5 7q-16 24 -16 34q0 15 29 18q5 1 11 1l1 14l-14 -1q-5 0 -10 -1q-48 -4 -65 -4h-32q-14 0 -43 3q-15 1 -25 2l-14 1
l1 -14q6 0 11 -1q34 -3 56 -19t38 -40l125 -186v-118q0 -32 -10 -43.5t-45 -15.5q-5 -1 -11 -1l-1 -14l14 1q10 1 25 2q29 3 43 3h33q14 0 43 -3q15 -1 25 -2l14 -1l-1 14q-6 0 -11 1q-35 4 -45 15.5t-10 43.5v123l117 181l1 1q17 27 33.5 41t48.5 17q5 1 11 1z" />
    <glyph glyph-name="z" unicode="z" horiz-adv-x="480" 
d="M431 88h-16q-15 -31 -27 -43t-30 -12h-227l136 194h122l27 29h-128l117 167v18h-243q-29 0 -29 11q0 5 3 14h-18l-38 -113h14q15 31 27.5 43t30.5 12h171l-106 -152h-110l-28 -29h117l-146 -208v-19h298q17 0 23 -2.5t6 -9.5q0 -4 -2 -13h16z" />
    <glyph glyph-name="braceleft" unicode="{" horiz-adv-x="470" 
d="M373 -105q-113 27 -113 120v631q0 93 113 120l-1 17q-80 -10 -131.5 -63.5t-51.5 -125.5q0 -25 12 -81q11 -49 11 -68q0 -40 -29.5 -67.5t-82.5 -37.5v-19q53 -10 82.5 -37.5t29.5 -67.5q0 -19 -11 -68q-12 -56 -12 -81q0 -72 51.5 -125.5t131.5 -63.5z" />
    <glyph glyph-name="bar" unicode="|" horiz-adv-x="510" 
d="M282 -200v1000h-54v-1000h54z" />
    <glyph glyph-name="braceright" unicode="}" horiz-adv-x="470" 
d="M370 321v19q-53 10 -82.5 37.5t-29.5 67.5q0 19 11 68q12 56 12 81q0 72 -51.5 125.5t-131.5 63.5l-1 -17q113 -27 113 -120v-631q0 -93 -113 -120l1 -17q80 10 131.5 63.5t51.5 125.5q0 25 -12 81q-11 49 -11 68q0 40 29.5 67.5t82.5 37.5z" />
    <glyph glyph-name="asciitilde" unicode="~" horiz-adv-x="542" 
d="M519 391h-24q-5 -42 -28.5 -66t-60.5 -24q-19 0 -44.5 9t-63.5 30q-52 30 -81 40t-59 10q-56 0 -95 -45.5t-40 -111.5h22q3 41 27.5 66.5t60.5 25.5q18 0 41 -8.5t63 -30.5q54 -30 87 -41.5t64 -11.5q54 0 91.5 45t39.5 113z" />
    <glyph glyph-name="quotesinglbase" unicode="&#x201a;" horiz-adv-x="469" 
d="M392 228q0 101 -46 166q-22 30 -50.5 46.5t-60.5 16.5q-33 0 -62 -19t-50.5 -53.5t-33.5 -78.5t-12 -92q0 -50 12 -92.5t34 -73.5q45 -63 112 -63q33 0 62 19t50.5 53.5t33 78.5t11.5 92zM336 221v-12l1 -12q0 -78 -25 -129.5t-66 -51.5q-46 0 -77 58.5t-37 146.5v10v10
q0 79 25.5 131.5t66.5 52.5q47 0 77 -58.5t35 -145.5z" />
    <glyph glyph-name="florin" unicode="&#x192;" horiz-adv-x="500" 
d="M534 636v19h-32q-7 56 -72 56q-48 0 -85 -42.5t-58 -124.5l-25 -100h-112v-32h104l-110 -433q-20 -78 -38.5 -113.5t-43.5 -35.5q-13 0 -13 9q0 3 4 11q5 7 6 10.5t1 7.5q0 11 -9.5 20t-22.5 9q-16 0 -27.5 -13t-11.5 -31q0 -23 17.5 -38t43.5 -15q49 0 91 47.5t76 127.5
t59.5 175t45.5 200l12 62h134v32h-128l26 142q10 55 22 78t34 23q12 0 19 -12t7 -39h86z" />
    <glyph glyph-name="quotedblbase" unicode="&#x201e;" horiz-adv-x="470" 
d="M400 30v8q-20 8 -37 24.5t-24 36.5h-8q-8 -20 -24.5 -37t-36.5 -24v-8q29 -10 42 -27.5t13 -39.5q0 -33 -27 -71l11 -8q13 10 24.5 29.5t28.5 53.5q13 26 21.5 41t16.5 22zM200 30v8q-20 8 -37 24.5t-24 36.5h-8q-8 -20 -24.5 -37t-36.5 -24v-8q29 -10 42 -27.5t13 -39.5
q0 -33 -27 -71l11 -8q13 10 24.5 29.5t28.5 53.5q13 26 21.5 41t16.5 22z" />
    <glyph glyph-name="ellipsis" unicode="&#x2026;" horiz-adv-x="900" 
d="M800 30v8q-20 8 -37 24.5t-24 36.5h-8q-8 -20 -24.5 -37t-36.5 -24v-8q20 -7 36 -23.5t25 -37.5h8q12 21 27 37.5t34 23.5zM500 30v8q-20 8 -37 24.5t-24 36.5h-8q-8 -20 -24.5 -37t-36.5 -24v-8q20 -7 36 -23.5t25 -37.5h8q12 21 27 37.5t34 23.5zM200 30v8
q-20 8 -37 24.5t-24 36.5h-8q-8 -20 -24.5 -37t-36.5 -24v-8q20 -7 36 -23.5t25 -37.5h8q12 21 27 37.5t34 23.5z" />
    <glyph glyph-name="dagger" unicode="&#x2020;" horiz-adv-x="478" 
d="M404 317l-1 14q-5 58 -5 78v18q0 20 5 78l1 14l-13 -1q0 -6 -1 -11q-4 -37 -16.5 -51t-42.5 -14h-53q6 58 13 91t13 35v8q-20 8 -37 24.5t-24 36.5h-8q-8 -20 -24.5 -37t-36.5 -24v-8q7 -2 14 -35t13 -91h-54q-30 0 -42.5 14t-16.5 51q-1 5 -1 11l-13 1l1 -14
q5 -58 5 -78v-18q0 -20 -5 -78l-1 -14l13 1q0 6 1 11q4 37 16.5 51t42.5 14h59q9 -100 16.5 -243.5t12.5 -293.5h8q5 140 13 286t17 251h58q30 0 42.5 -14t16.5 -51q1 -5 1 -11z" />
    <glyph glyph-name="daggerdbl" unicode="&#x2021;" horiz-adv-x="412" 
d="M371 442h-323v-39q0 -14 -3 -43q-1 -15 -2 -25l-1 -14l14 1q0 6 1 11q4 35 15.5 45t43.5 10h160l-60 -147q-24 -59 -42 -99t-31.5 -65t-24 -39.5t-21.5 -26.5q-13 -14 -13 -22q0 -4 5 -4q8 0 22 11q16 13 31.5 29.5t33 42.5t39 64.5t49.5 93.5z" />
    <glyph glyph-name="circumflex" unicode="&#x2c6;" horiz-adv-x="333" 
d="M304 457l-93 161h-90l-92 -161h15l123 113l122 -113h15z" />
    <glyph glyph-name="perthousand" unicode="&#x2030;" horiz-adv-x="1086" 
d="M1028 134q0 62 -43.5 101t-107.5 39q-31 0 -59 -11.5t-48.5 -32.5t-32 -48t-11.5 -56q0 -62 43.5 -101.5t107.5 -39.5t107.5 44t43.5 105zM966 130v-8q1 -4 1 -8q0 -46 -22 -76.5t-58 -30.5q-41 0 -67.5 35t-32.5 88v7v6q0 47 22.5 77.5t58.5 30.5q41 0 67.5 -34.5
t30.5 -86.5zM378 497q0 62 -43.5 101t-107.5 39q-31 0 -59 -11.5t-48.5 -32.5t-32 -48t-11.5 -56q0 -62 43.5 -101.5t107.5 -39.5t107.5 44t43.5 105zM641 654h-41l-486 -681h41zM678 134q0 62 -43.5 101t-107.5 39q-31 0 -59 -11.5t-48.5 -32.5t-32 -48t-11.5 -56
q0 -62 43.5 -101.5t107.5 -39.5t107.5 44t43.5 105zM316 493v-8q1 -4 1 -8q0 -46 -22 -76.5t-58 -30.5q-41 0 -67.5 35t-32.5 88v7v6q0 47 22.5 77.5t58.5 30.5q41 0 67.5 -34.5t30.5 -86.5zM616 130v-8q1 -4 1 -8q0 -46 -22 -76.5t-58 -30.5q-41 0 -67.5 35t-32.5 88v7v6
q0 47 22.5 77.5t58.5 30.5q41 0 67.5 -34.5t30.5 -86.5z" />
    <glyph glyph-name="Scaron" unicode="&#x160;" horiz-adv-x="530" 
d="M369 881h-23l-96 -106l-96 106h-23l97 -174h44zM462 156q0 38 -15 68.5t-40.5 55.5t-56.5 45t-79 47l-4 2q-63 37 -92.5 65t-29.5 71q0 44 31 73.5t79 29.5q26 0 48 -3t43.5 -13t40 -30.5t31.5 -52.5h8l-15 95q-20 0 -35.5 3.5t-33.5 9.5q-22 8 -39.5 11.5t-42.5 3.5
q-81 0 -129.5 -41.5t-48.5 -113.5q0 -50 38.5 -90t103.5 -77q91 -51 128.5 -91t37.5 -96q0 -55 -41 -86.5t-104 -31.5q-68 0 -105 32.5t-53 106.5h-14l20 -128q3 -1 13 -5q32 -14 64 -22.5t75 -8.5q46 0 86 14t69.5 38.5t45.5 55.5t16 63z" />
    <glyph glyph-name="guilsinglleft" unicode="&#x2039;" horiz-adv-x="440" 
d="M369 132q0 50 -30 88t-78 50q34 34 58.5 79t34.5 93h-174q-32 0 -43.5 10t-15.5 45q-1 5 -1 11l-14 1l1 -14q1 -10 2 -25q3 -29 3 -43v-24q0 -14 -3 -43q-1 -15 -2 -25l-1 -14l14 1q0 6 1 11q4 35 15.5 45t43.5 10h122q-11 -40 -42 -78t-82 -80l3 -5q4 2 11.5 4.5
t15.5 2.5q40 0 70 -29t34 -76v-6q1 -5 1 -7q0 -45 -23 -75t-60 -30q-30 0 -53.5 16t-33.5 38q-9 19 -9 28q0 13 15 31q1 1 2 3q3 2 5 6l-10 11l-8 -11q-5 -5 -18 -20q-14 -15 -20 -21l-19 -19q-11 -10 -42 -36l-10 -7l10 -9l2 1q5 2 7 4q20 15 33 15t26 -12q47 -42 112 -42
q64 0 107 43.5t43 103.5z" />
    <glyph glyph-name="OE" unicode="&#x152;" horiz-adv-x="1036" 
d="M968 119l-17 -2q-17 -28 -28 -42t-24 -23t-31 -12.5t-46 -3.5h-107q-36 0 -43.5 8.5t-7.5 49.5v234h226v32h-226v228l178 -2q25 0 38 -2.5t21.5 -9t14 -20.5t12.5 -41h14l-19 108h-312q-15 0 -48 2q-20 2 -23 2q-48 12 -101 12q-76 0 -142 -26.5t-115 -73.5t-75.5 -108
t-26.5 -128q0 -70 27.5 -128.5t77 -100.5t115 -64.5t139.5 -22.5q47 0 93 11q4 0 25 1.5t34 2.5t20 1h156q15 0 45 -1t48.5 -1.5t38 -1.5t25.5 -1q3 10 6 23q5 25 12 45.5t26 54.5zM596 73q0 -9 -1 -17.5t-2 -12.5q-54 -28 -123 -28q-66 0 -122.5 23t-99 63.5t-68 94.5
t-31.5 115q-2 17 -2 34q0 55 18.5 102.5t53 83.5t83 56t106.5 20q106 0 188 -58v-476z" />
    <glyph glyph-name="quoteleft" unicode="&#x2018;" horiz-adv-x="270" 
d="M200 568v8q-20 7 -36.5 24t-24.5 37h-8q-7 -20 -24 -36.5t-37 -24.5v-8q8 -7 16.5 -21.5t22.5 -41.5q15 -32 27 -52t25 -31l11 8q-27 38 -27 72q0 21 13 38.5t42 27.5z" />
    <glyph glyph-name="quoteright" unicode="&#x2019;" horiz-adv-x="270" 
d="M200 568v8q-20 8 -37 24.5t-24 36.5h-8q-8 -20 -24.5 -37t-36.5 -24v-8q29 -10 42 -27.5t13 -38.5q0 -34 -27 -72l11 -8q13 11 24.5 30t28.5 53q13 26 21.5 41t16.5 22z" />
    <glyph glyph-name="quotedblleft" unicode="&#x201c;" horiz-adv-x="470" 
d="M400 568v8q-20 7 -36.5 24t-24.5 37h-8q-7 -20 -24 -36.5t-37 -24.5v-8q8 -7 16.5 -21.5t22.5 -41.5q15 -32 27 -52t25 -31l11 8q-27 38 -27 72q0 21 13 38.5t42 27.5zM200 568v8q-20 7 -36.5 24t-24.5 37h-8q-7 -20 -24 -36.5t-37 -24.5v-8q8 -7 16.5 -21.5t22.5 -41.5
q15 -32 27 -52t25 -31l11 8q-27 38 -27 72q0 21 13 38.5t42 27.5z" />
    <glyph glyph-name="quotedblright" unicode="&#x201d;" horiz-adv-x="470" 
d="M400 568v8q-20 8 -37 24.5t-24 36.5h-8q-8 -20 -24.5 -37t-36.5 -24v-8q29 -10 42 -27.5t13 -38.5q0 -34 -27 -72l11 -8q13 11 24.5 30t28.5 53q13 26 21.5 41t16.5 22zM200 568v8q-20 8 -37 24.5t-24 36.5h-8q-8 -20 -24.5 -37t-36.5 -24v-8q29 -10 42 -27.5t13 -38.5
q0 -34 -27 -72l11 -8q13 11 24.5 30t28.5 53q13 26 21.5 41t16.5 22z" />
    <glyph glyph-name="bullet" unicode="&#x2022;" horiz-adv-x="354" 
d="M300 311q0 51 -36.5 87t-86.5 36t-86.5 -36t-36.5 -87t36.5 -86.5t86.5 -35.5q51 0 87 35.5t36 86.5z" />
    <glyph glyph-name="endash" unicode="&#x2013;" horiz-adv-x="527" 
d="M527 284v46h-527v-46h527z" />
    <glyph glyph-name="emdash" unicode="&#x2014;" horiz-adv-x="827" 
d="M827 284v46h-827v-46h827z" />
    <glyph glyph-name="tilde" unicode="&#x2dc;" horiz-adv-x="333" 
d="M303 564h-20q-1 -26 -14 -39.5t-31 -13.5q-12 0 -23 5.5t-29 16.5l-1 1l-1 1q-27 16 -40.5 22.5t-31.5 6.5q-40 0 -59 -26.5t-22 -70.5h20q0 26 13 39t30 13q10 0 17 -3t29 -16v0q33 -20 48 -26.5t35 -6.5q8 0 19 2t25 11t24.5 29.5t11.5 54.5z" />
    <glyph glyph-name="trademark" unicode="&#x2122;" horiz-adv-x="1020" 
d="M953 281l-1 13q-5 0 -10 1q-31 3 -40 13.5t-9 39.5v214q0 29 9 39t40 14q5 1 10 1l1 12l-12 -1q-47 -3 -62 -8l-182 -52l-182 52q-20 5 -61 8l-13 1l1 -12q6 0 10 -1q32 -4 41 -14.5t9 -38.5v-214q0 -28 -9 -39t-41 -14q-4 -1 -10 -1l-1 -13l13 1q16 1 35 3q17 2 26 2h43
v289l111 -34v-194q0 -29 -9 -39.5t-41 -13.5h-2v0v0l-1 -14l5 1q10 1 24 2q25 3 37 3h30q13 0 40 -3l21 -2l6 -1l-1 14h-3q-31 3 -40 13.5t-9 39.5v194l110 34v-289h43q13 0 39 -3q14 -1 23 -2zM421 663h-13q-13 -25 -23.5 -32.5t-29.5 -7.5h-244q-26 0 -26 11q0 4 2 11h-16
l-35 -92h14q12 25 23 32.5t30 7.5h84v-245q0 -29 -8.5 -39.5t-40.5 -13.5q-5 -1 -10 -1l-1 -13l13 1l21 2q27 3 40 3h29q13 0 39 -3q3 0 23 -2l12 -1l-1 13q-5 0 -10 1q-31 3 -40 13.5t-9 39.5v245h102q27 0 27 -11q0 -4 -2 -11h14z" />
    <glyph glyph-name="scaron" unicode="&#x161;" horiz-adv-x="397" 
d="M316 697h-23l-96 -106l-96 106h-23l97 -174h44zM343 115q0 53 -34 85t-105 71l-14 8q-39 22 -57 38.5t-18 42.5q0 31 21.5 52t54.5 21q37 0 68 -15.5t48 -57.5h12l-13 72q-15 0 -26.5 3t-25.5 9q-15 6 -28 9.5t-31 3.5q-60 0 -95.5 -31.5t-35.5 -86.5q0 -37 28 -67
t76 -57q66 -36 92 -60t26 -61q0 -39 -29 -61.5t-73 -22.5q-47 0 -74 24.5t-39 76.5h-14l16 -94q3 -1 13 -6q23 -11 46 -18.5t52 -7.5q34 0 63.5 10.5t51.5 29.5q44 38 44 90z" />
    <glyph glyph-name="guilsinglright" unicode="&#x203a;" horiz-adv-x="470" 
d="M381 51l-1 14q-1 10 -2 25q-3 29 -3 43v10q0 14 3 43q1 15 2 25l1 14l-14 -1q0 -6 -1 -11q-4 -35 -15.5 -45t-43.5 -10h-1v215q0 32 10 43.5t45 15.5q5 1 11 1l1 14l-14 -1q-10 -1 -25 -2q-29 -3 -43 -3h-29l-223 -323h204v-49q0 -32 -10 -43.5t-45 -15.5q-5 -1 -11 -1
l-1 -14l14 1q10 1 25 2q29 3 43 3h33q14 0 43 -3q15 -1 25 -2l14 -1l-1 14q-6 0 -11 1q-35 4 -45 15.5t-10 43.5v49h1q32 0 43.5 -10t15.5 -45q1 -5 1 -11zM243 158h-137l137 197v-197z" />
    <glyph glyph-name="oe" unicode="&#x153;" horiz-adv-x="776" 
d="M736 90l-22 -2q-21 -36 -37 -46.5t-53 -10.5h-77q-24 0 -29 5.5t-5 32.5v161h163v28h-163v154l125 -2q32 -1 41.5 -8.5t18.5 -41.5l16 -1l-17 82h-232q-10 0 -20.5 1t-26.5 2q-40 13 -91 13q-55 0 -103.5 -19t-84 -53t-55 -78.5t-19.5 -92.5q0 -51 20 -93t56 -72.5
t84 -47t102 -16.5q45 0 84 12q19 2 31 3t23 1h119q5 0 51 -1.5t63 -1.5l3 10q5 21 11.5 37t23.5 45zM450 69q0 -18 -2 -25q-42 -28 -100 -28q-45 0 -83.5 16t-67 44.5t-46 65.5t-22.5 79q0 4 -1 11v11q0 78 49.5 130t128.5 52q85 0 144 -54v-302z" />
    <glyph glyph-name="Ydieresis" unicode="&#x178;" horiz-adv-x="677" 
d="M505 762v7q-18 7 -33.5 22.5t-22.5 33.5h-7q-7 -18 -22.5 -33.5t-33.5 -22.5v-7q18 -7 33.5 -22.5t22.5 -33.5h7q7 18 22.5 33.5t33.5 22.5zM319 762v7q-18 7 -33.5 22.5t-22.5 33.5h-7q-7 -18 -22.5 -33.5t-33.5 -22.5v-7q18 -7 33.5 -22.5t22.5 -33.5h7q7 18 22.5 33.5
t33.5 22.5zM667 627l-14 -1q-58 -5 -78 -5h-38q-20 0 -78 5l-14 1l1 -13q6 0 11 -1q31 -3 48 -10.5t17 -24.5q0 -12 -10 -28l-157 -252l-169 270q-7 11 -7 19q0 13 15.5 18t42.5 8h3q5 1 11 1l1 13l-14 -1q-24 -2 -49 -3.5t-39 -1.5h-38q-14 0 -39 1.5t-49 3.5l-14 1l1 -13
q6 0 11 -1q20 -2 32.5 -5.5t23 -11t22 -22t27.5 -40.5l182 -290v-176q0 -30 -14 -42.5t-51 -16.5q-5 -1 -11 -1l-1 -13l14 1q58 5 78 5h38q20 0 78 -5l14 -1l-1 13q-6 0 -11 1q-37 4 -51 16.5t-14 42.5v195l162 258q32 51 55.5 69.5t60.5 22.5q5 1 11 1z" />
    <glyph glyph-name="nbspace" unicode="&#xa0;" horiz-adv-x="278" 
 />
    <glyph glyph-name="exclamdown" unicode="&#xa1;" horiz-adv-x="300" 
d="M200 454v8q-19 7 -34 23.5t-27 37.5h-8q-9 -21 -25 -37.5t-36 -23.5v-8q20 -7 36.5 -24t24.5 -37h8q7 20 24 36.5t37 24.5zM200 -84v8q-9 3 -19.5 59.5t-20 138t-15.5 148t-6 81.5h-8q0 -14 -6 -83t-15 -147t-19.5 -136t-20.5 -61v-8q20 -7 36.5 -24t24.5 -37h8
q7 20 24 36.5t37 24.5z" />
    <glyph glyph-name="cent" unicode="&#xa2;" horiz-adv-x="590" 
d="M514 124h-18q-7 -64 -41.5 -88t-98.5 -24q-72 0 -127 44l179 365q30 -9 50.5 -30.5t31.5 -57.5l14 -1l-7 98q-7 -4 -15 -4q-9 0 -33 9q-19 8 -29 11l50 103h-27l-47 -97q-23 5 -49 5q-55 0 -103.5 -19t-84 -53t-55 -78.5t-19.5 -92.5q0 -60 27.5 -108t76.5 -78l-64 -131
h26l58 119q62 -31 138 -31q40 0 86 13t69 29zM383 427l-172 -354q-54 57 -58 141q0 45 13.5 84.5t38.5 69t59 46t74 16.5q24 0 45 -3z" />
    <glyph glyph-name="sterling" unicode="&#xa3;" horiz-adv-x="620" 
d="M557 613l-5 10q-28 -17 -53 -17q-17 0 -45 11q-21 8 -32 10q-30 5 -50 5q-46 0 -78 -22t-51 -56t-28.5 -70t-14.5 -74l-10 -70h-100v-32h96l-20 -154q-7 -59 -19.5 -87.5t-37.5 -28.5v-10q0 -12 -2 -37q-2 -27 -3 -41v-14l11 1q1 2 1 6q0 1 1 5q3 36 15.5 50t42.5 14
l303 -9q3 10 6 23q5 25 12 45.5t26 54.5l-17 -2q-17 -28 -28 -42t-24 -23t-31 -12.5t-46 -3.5h-107q-19 0 -28.5 12.5t-9.5 46.5q0 21 4 52l20 154h153v32h-148l9 70l2 15q4 31 9 57t15.5 50.5t28.5 40.5t46 16q22 0 46.5 -9.5t58.5 -33.5q24 27 38 38.5t44 28.5z" />
    <glyph glyph-name="currency" unicode="&#xa4;" horiz-adv-x="457" 
d="M389 -67l-1 14q-1 10 -2 25q-3 29 -3 43v24q0 14 3 43q1 15 2 25l1 14l-14 -1q0 -6 -1 -11q-4 -35 -15.5 -45t-43.5 -10h-173q15 16 53 53q39 37 63.5 62t48 55t38 59.5t14.5 56.5q0 54 -40.5 85.5t-102.5 31.5q-57 0 -101 -39.5t-44 -113.5q9 -2 25.5 -3.5t42.5 -4
t31.5 -3t10.5 -0.5l-2 15q-7 0 -10 1q-23 4 -33.5 16t-10.5 36q3 30 25 51.5t55 21.5q42 0 66.5 -27.5t24.5 -70.5q0 -53 -39 -107.5t-115 -133.5q-50 -52 -72 -78l-4 -17h249q32 0 43.5 -10t15.5 -45q1 -5 1 -11z" />
    <glyph glyph-name="yen" unicode="&#xa5;" horiz-adv-x="677" 
d="M667 627l-14 -1q-58 -5 -78 -5h-38q-20 0 -78 5l-14 1l1 -13q6 0 11 -1q31 -3 48 -10.5t17 -24.5q0 -12 -10 -28l-66 -106h-182l-78 124q-7 11 -7 19q0 13 15.5 18t42.5 8h3q5 1 11 1l1 13l-14 -1q-24 -2 -49 -3.5t-39 -1.5h-38q-14 0 -39 1.5t-49 3.5l-14 1l1 -13
q6 0 11 -1q20 -2 32.5 -5.5t23 -11t22 -22t27.5 -40.5l57 -90h-104v-53h137l59 -94h-196v-53h229v-176q0 -30 -14 -42.5t-51 -16.5q-5 -1 -11 -1l-1 -13l14 1q58 5 78 5h38q20 0 78 -5l14 -1l-1 13q-6 0 -11 1q-37 4 -51 16.5t-14 42.5v176h230v53h-209l59 94h150v53h-116
l48 77q32 51 55.5 69.5t60.5 22.5q5 1 11 1zM413 391l-58 -93l-58 93h116z" />
    <glyph glyph-name="brokenbar" unicode="&#xa6;" horiz-adv-x="510" 
d="M282 461v352h-54v-352h54zM282 -17v352h-54v-352h54z" />
    <glyph glyph-name="section" unicode="&#xa7;" horiz-adv-x="443" 
d="M374 122q0 60 -38 103t-96 43q-28 0 -54 -12t-43 -33q9 87 39 143t77 82q15 7 15 15q0 6 -10 6q-5 0 -10 -2q-65 -23 -114.5 -87.5t-58.5 -157.5q-2 -20 -2 -38q0 -94 44 -146.5t117 -52.5q57 0 95.5 38t38.5 99zM326 127q-5 -53 -32.5 -88.5t-69.5 -35.5q-37 0 -60 31.5
t-23 79.5v6v7q5 53 33 88.5t69 35.5q38 0 61 -31.5t23 -79.5q0 -2 -1 -6v-7z" />
    <glyph glyph-name="dieresis" unicode="&#xa8;" horiz-adv-x="332" 
d="M315 513v7q-18 7 -33.5 22.5t-22.5 33.5h-7q-7 -18 -22.5 -33.5t-33.5 -22.5v-7q18 -7 33.5 -22.5t22.5 -33.5h7q7 18 22.5 33.5t33.5 22.5zM129 513v7q-18 7 -33.5 22.5t-22.5 33.5h-7q-7 -18 -22.5 -33.5t-33.5 -22.5v-7q18 -7 33.5 -22.5t22.5 -33.5h7q7 18 22.5 33.5
t33.5 22.5z" />
    <glyph glyph-name="copyright" unicode="&#xa9;" horiz-adv-x="752" 
d="M702 311q0 66 -25 125.5t-70.5 105t-105 70.5t-125.5 25t-125.5 -25t-105 -70.5t-70.5 -105t-25 -125.5t25 -125.5t70.5 -105t105 -70.5t125.5 -25t125.5 25t105 70.5t70.5 105t25 125.5zM675 311q0 -60 -23 -114.5t-64.5 -96t-96.5 -65t-115 -23.5t-114.5 23.5t-96 65
t-65 96t-23.5 114.5t23.5 115t65 96.5t96 64.5t114.5 23t115 -23t96.5 -64.5t64.5 -96.5t23 -115zM550 230h-17q-6 -58 -37 -79.5t-89 -21.5q-73 0 -125.5 50.5t-56.5 131.5q0 83 47 138.5t119 55.5q55 0 88.5 -19t48.5 -68l13 -1l-7 88q-6 -4 -13 -4q-9 0 -30 9
q-22 9 -43 14t-49 5q-50 0 -93.5 -17t-75.5 -47.5t-49.5 -70.5t-17.5 -83q0 -46 18 -84.5t51 -66t76 -42t91 -14.5q36 0 77.5 11.5t62.5 26.5z" />
    <glyph glyph-name="ordfeminine" unicode="&#xaa;" horiz-adv-x="0" 
 />
    <glyph glyph-name="guillemotleft" unicode="&#xab;" horiz-adv-x="454" 
d="M359 83l-63 166l63 169h-17l-117 -169l117 -166h17zM249 65l-95 184l95 186h-18l-147 -186l147 -184h18z" />
    <glyph glyph-name="logicalnot" unicode="&#xac;" horiz-adv-x="667" 
d="M597 177v291h-528v-53h476v-238h52z" />
    <glyph glyph-name="minus" unicode="&#xad;" horiz-adv-x="667" 
d="M597 276v61h-528v-61h528z" />
    <glyph glyph-name="minus" unicode="&#x2212;" horiz-adv-x="667" 
d="M597 276v61h-528v-61h528z" />
    <glyph glyph-name="registered" unicode="&#xae;" horiz-adv-x="752" 
d="M702 311q0 66 -25 125.5t-70.5 105t-105 70.5t-125.5 25t-125.5 -25t-105 -70.5t-70.5 -105t-25 -125.5t25 -125.5t70.5 -105t105 -70.5t125.5 -25t125.5 25t105 70.5t70.5 105t25 125.5zM476 396q0 -38 -27 -62t-69 -31h-56v161q0 19 8 23.5t36 4.5q52 0 80 -28t28 -68z
M675 311q0 -58 -22 -112t-62 -95q-4 7 -15 22q-5 6 -6 7q-2 2 -21.5 25.5t-33.5 40.5t-39.5 47.5t-38.5 45.5q43 16 69.5 47t26.5 72q0 43 -39.5 72t-105.5 29q-49 0 -88 -2q-11 -1 -12 -1h-7q-10 0 -30 2q-16 1 -31 2l-13 1l1 -12q6 0 10 -1q32 -4 41 -14.5t9 -38.5v-274
q0 -28 -9 -39t-41 -14q-4 -1 -10 -1l-1 -12h13q10 1 24 2q25 3 37 3h30q13 0 40 -3l21 -2h13l-1 12q-6 0 -10 1q-32 3 -41 14t-9 39v109h34q14 -12 39.5 -35t52 -46.5t51.5 -45t46 -39.5q25 -20 33 -24q-41 -38 -93.5 -59.5t-110.5 -21.5q-60 0 -114.5 23.5t-96 65t-65 96
t-23.5 114.5t23.5 115t65 96.5t96 64.5t114.5 23t115 -23t96.5 -64.5t64.5 -96.5t23 -115z" />
    <glyph glyph-name="macron" unicode="&#xaf;" horiz-adv-x="333" 
d="M322 479v63h-311v-63h311z" />
    <glyph glyph-name="degree" unicode="&#xb0;" horiz-adv-x="444" 
d="M371 110q0 52 -34.5 85t-105.5 73l-2 1q-44 26 -65 45t-21 50q0 29 21 49.5t59 20.5q37 0 60 -24.5t23 -60.5q0 -25 -9 -44t-24 -33q-6 -6 -6 -10t5 -4t13 4q27 12 46.5 38t19.5 53q0 44 -37.5 74.5t-91.5 30.5q-52 0 -91.5 -31t-39.5 -83q0 -30 18.5 -55t52.5 -48
q-38 -17 -60 -51.5t-22 -74.5q0 -22 8.5 -44.5t27 -42t46 -31.5t63.5 -12q29 0 56 10.5t47 29t31.5 41t11.5 44.5zM313 91q0 -34 -27 -56t-64 -22q-38 0 -69.5 30t-31.5 76q0 37 19.5 65.5t50.5 39.5q1 0 1 -1q1 0 2 -1q64 -35 91.5 -63.5t27.5 -67.5z" />
    <glyph glyph-name="plusminus" unicode="&#xb1;" horiz-adv-x="667" 
d="M597 375v52h-238v238h-53v-238h-237v-52h237v-236h53v236h238zM597 0v53h-528v-53h528z" />
    <glyph glyph-name="twosuperior" unicode="&#xb2;" horiz-adv-x="411" 
d="M350 166l-1 12q-2 26 -3 38t-1 23v22q0 11 1 24t3 37l1 13l-13 -1v-10q-4 -31 -14.5 -40t-39.5 -9h-155q13 13 47 46t57 56.5t44 50t34 53.5t13 51q0 49 -37 77t-92 28q-51 0 -90.5 -35.5t-39.5 -101.5q9 -2 21 -3.5t37 -3.5t30.5 -2.5t10.5 -0.5l-2 13q-6 0 -9 1
q-40 7 -40 47q3 27 23 46.5t49 19.5q38 0 60 -24.5t22 -64.5q0 -48 -35.5 -97.5t-103.5 -120.5q-45 -46 -64 -69l-4 -15h224q29 0 39.5 -9t14.5 -41v-9z" />
    <glyph glyph-name="threesuperior" unicode="&#xb3;" horiz-adv-x="396" 
d="M319 624h-157q-29 0 -39.5 9t-13.5 40q-1 5 -1 10l-13 1l1 -13l2 -21q3 -27 3 -40v-21q0 -13 -3 -39q-1 -14 -2 -23l-1 -12l13 1q0 5 1 10q3 32 13.5 40.5t39.5 8.5h110q-11 -36 -38.5 -70t-73.5 -72l3 -5q3 2 10 4.5t14 2.5q36 0 63 -26t31 -69q0 -48 -20 -77t-54 -29
q-28 0 -49 14.5t-29 34.5v0q-9 17 -9 25q0 11 14 28l1 1q3 2 5 7l-9 10l-7 -10q-4 -4 -16 -18q-13 -14 -18 -19l-17 -17q-11 -10 -14 -12q-21 -19 -24 -21l-9 -6l9 -8l1 1q5 2 7 4q18 13 30 13q11 0 23 -11q43 -38 101 -38t96.5 39.5t38.5 93.5q0 45 -27 79t-70 45
q30 31 52 71.5t32 83.5z" />
    <glyph glyph-name="acute" unicode="&#xb4;" horiz-adv-x="333" 
d="M275 626h-109l-51 -169h17z" />
    <glyph glyph-name="mu" unicode="&#xb5;" horiz-adv-x="609" 
d="M544 -5l-1 14q-6 0 -11 1q-35 4 -45 15.5t-10 43.5v304q0 32 10 43.5t45 15.5q5 1 11 1l1 14l-14 -1q-10 -1 -25 -2q-29 -3 -43 -3h-33q-14 0 -43 3q-15 1 -25 2l-14 1l1 -14q6 0 11 -1q35 -4 45 -15.5t10 -43.5v-268q-22 -31 -55.5 -51t-67.5 -20q-50 0 -82.5 33
t-32.5 102v204q0 32 10 43.5t45 15.5q5 1 11 1l1 14l-14 -1q-10 -1 -25 -2q-29 -3 -43 -3h-33q-14 0 -43 3q-15 1 -25 2l-14 1l1 -14q6 0 11 -1q35 -4 45 -15.5t10 -43.5v-447q0 -32 -10 -43.5t-45 -15.5q-5 -1 -11 -1l-1 -14l14 1q10 1 25 2q29 3 43 3h33q14 0 43 -3
q15 -1 25 -2l14 -1l-1 14q-6 0 -11 1q-35 4 -45 15.5t-10 43.5v88q37 -24 94 -24q40 0 79 19t65 52v-60h48q14 0 43 -3q15 -1 25 -2z" />
    <glyph glyph-name="paragraph" unicode="&#xb6;" horiz-adv-x="630" 
d="M531 -206l-1 13q-6 0 -11 1q-37 4 -51 16.5t-14 42.5v688q0 30 14 42.5t51 16.5q5 1 11 1l1 13l-14 -1q-58 -5 -78 -5h-194q-38 0 -71.5 -14.5t-59 -40t-40 -59t-14.5 -71.5t14.5 -71.5t40 -59t59 -39.5t71.5 -14h44v-253h37v421h-37v-111h-32v111h-112v32h112v112h32
v-112h37v137h91v-790h22q20 0 78 -5z" />
    <glyph glyph-name="periodcentered" unicode="&#xb7;" horiz-adv-x="443" 
d="M363 219q2 20 2 38q0 94 -44 147t-117 53q-57 0 -95.5 -38.5t-38.5 -100.5q0 -60 38 -103t96 -43q27 0 53.5 12.5t43.5 32.5q-9 -86 -39 -142t-77 -81q-15 -7 -15 -15q0 -7 10 -7q5 0 10 2q65 23 115 88t58 157zM297 314q-5 -50 -30.5 -84t-65.5 -34q-35 0 -56 30t-21 75
v6v7q5 50 30.5 84t65.5 34q34 0 56 -30t22 -75q0 -2 -1 -6v-7z" />
    <glyph glyph-name="periodcentered" unicode="&#x2219;" horiz-adv-x="443" 
d="M363 219q2 20 2 38q0 94 -44 147t-117 53q-57 0 -95.5 -38.5t-38.5 -100.5q0 -60 38 -103t96 -43q27 0 53.5 12.5t43.5 32.5q-9 -86 -39 -142t-77 -81q-15 -7 -15 -15q0 -7 10 -7q5 0 10 2q65 23 115 88t58 157zM297 314q-5 -50 -30.5 -84t-65.5 -34q-35 0 -56 30t-21 75
v6v7q5 50 30.5 84t65.5 34q34 0 56 -30t22 -75q0 -2 -1 -6v-7z" />
    <glyph glyph-name="cedilla" unicode="&#xb8;" horiz-adv-x="333" 
d="M258 -125q0 25 -16.5 46t-43.5 31l36 53h-36l-94 -119l21 13q10 6 19 9.5t22 3.5q22 0 37.5 -13t15.5 -31q0 -19 -16 -36.5t-37 -17.5q-11 0 -27 3.5t-25 8.5l-9 -19q36 -16 58 -16q41 0 68 24.5t27 59.5z" />
    <glyph glyph-name="onesuperior" unicode="&#xb9;" horiz-adv-x="346" 
d="M262 221l-1 13q-5 0 -10 1q-31 3 -40 13.5t-9 39.5v274q0 29 9 39t40 14q5 1 10 1l1 12l-13 -1q-18 -1 -29 -2q-23 -2 -32 -2h-30q-10 0 -30 2q-16 1 -31 2l-12 1v-12q6 0 10 -1q32 -4 41 -14.5t9 -38.5v-274q0 -28 -9 -39t-41 -14q-4 -1 -10 -1v-13l12 1q10 1 24 2
q25 3 37 3h30q13 0 40 -3l21 -2z" />
    <glyph glyph-name="ordmasculine" unicode="&#xba;" horiz-adv-x="0" 
 />
    <glyph glyph-name="guillemotright" unicode="&#xbb;" horiz-adv-x="454" 
d="M371 249l-148 186h-18l95 -186l-95 -184h18zM229 249l-116 169h-18l63 -169l-63 -166h18z" />
    <glyph glyph-name="onequarter" unicode="&#xbc;" horiz-adv-x="926" 
d="M819 46l-1 12q-1 9 -2 23q-3 26 -3 39v9q0 12 3 37q1 14 2 24l1 12h-13q0 -6 -1 -10q-3 -32 -14 -41t-39 -9h-1v194q0 28 9 38.5t41 14.5q4 1 10 1l1 12l-13 -1q-18 -1 -29 -2q-23 -2 -32 -2h-26l-201 -291h184v-44q0 -28 -9 -39t-41 -14q-4 -1 -10 -1l-1 -13l13 1l21 2
q27 3 40 3h30q13 0 40 -3l21 -2l13 -1l-1 13q-6 0 -10 1q-32 3 -41 14t-9 39v44h1q29 0 39.5 -8.5t13.5 -40.5q1 -5 1 -10zM704 654h-41l-486 -681h41zM262 221l-1 13q-5 0 -10 1q-31 3 -40 13.5t-9 39.5v274q0 29 9 39t40 14q5 1 10 1l1 12l-13 -1q-18 -1 -29 -2
q-23 -2 -32 -2h-30q-10 0 -30 2q-16 1 -31 2l-12 1v-12q6 0 10 -1q32 -4 41 -14.5t9 -38.5v-274q0 -28 -9 -39t-41 -14q-4 -1 -10 -1v-13l12 1q10 1 24 2q25 3 37 3h30q13 0 40 -3l21 -2zM695 140h-124l124 177v-177z" />
    <glyph glyph-name="onehalf" unicode="&#xbd;" horiz-adv-x="960" 
d="M860 -60l-1 12q-2 26 -3 38t-1 23v22q0 11 1 24t3 37l1 13l-13 -1v-10q-4 -31 -14.5 -40t-39.5 -9h-155q13 13 47 46t57 56.5t44 50t34 53.5t13 51q0 49 -37 77t-92 28q-51 0 -90.5 -35.5t-39.5 -101.5q9 -2 21 -3.5t37 -3.5t30.5 -2.5t10.5 -0.5l-2 13q-6 0 -9 1
q-40 7 -40 47q3 27 23 46.5t49 19.5q38 0 60 -24.5t22 -64.5q0 -48 -35.5 -97.5t-103.5 -120.5q-45 -46 -64 -69l-4 -15h224q29 0 39.5 -9t14.5 -41v-9zM704 654h-41l-486 -681h41zM262 221l-1 13q-5 0 -10 1q-31 3 -40 13.5t-9 39.5v274q0 29 9 39t40 14q5 1 10 1l1 12
l-13 -1q-18 -1 -29 -2q-23 -2 -32 -2h-30q-10 0 -30 2q-16 1 -31 2l-12 1v-12q6 0 10 -1q32 -4 41 -14.5t9 -38.5v-274q0 -28 -9 -39t-41 -14q-4 -1 -10 -1v-13l12 1q10 1 24 2q25 3 37 3h30q13 0 40 -3l21 -2z" />
    <glyph glyph-name="threequarters" unicode="&#xbe;" horiz-adv-x="966" 
d="M859 46l-1 12q-1 9 -2 23q-3 26 -3 39v9q0 12 3 37q1 14 2 24l1 12h-13q0 -6 -1 -10q-3 -32 -14 -41t-39 -9h-1v194q0 28 9 38.5t41 14.5q4 1 10 1l1 12l-13 -1q-18 -1 -29 -2q-23 -2 -32 -2h-26l-201 -291h184v-44q0 -28 -9 -39t-41 -14q-4 -1 -10 -1l-1 -13l13 1l21 2
q27 3 40 3h30q13 0 40 -3l21 -2l13 -1l-1 13q-6 0 -10 1q-32 3 -41 14t-9 39v44h1q29 0 39.5 -8.5t13.5 -40.5q1 -5 1 -10zM764 654h-41l-486 -681h41zM352 345q0 45 -27 79t-70 45q30 31 52 71.5t32 83.5h-157q-29 0 -39.5 9t-13.5 40q-1 5 -1 10l-13 1l1 -13l2 -21
q3 -27 3 -40v-21q0 -13 -3 -39q-1 -14 -2 -23l-1 -12l13 1q0 5 1 10q3 32 13.5 40.5t39.5 8.5h110q-11 -36 -38.5 -70t-73.5 -72l3 -5q3 2 10 4.5t14 2.5q36 0 63 -26t31 -69q0 -48 -20 -77t-54 -29q-28 0 -49 14.5t-29 34.5v0q-9 17 -9 25q0 11 14 28l1 1q3 2 5 7l-9 10
l-7 -10q-4 -4 -16 -18q-13 -14 -18 -19l-17 -17q-11 -10 -14 -12q-21 -19 -24 -21l-9 -6l9 -8l1 1q5 2 7 4q18 13 30 13q11 0 23 -11q43 -38 101 -38t96.5 39.5t38.5 93.5zM735 140h-124l124 177v-177z" />
    <glyph glyph-name="questiondown" unicode="&#xbf;" horiz-adv-x="438" 
d="M354 455v8q-20 7 -36 23.5t-25 37.5h-8q-12 -21 -27 -37.5t-34 -23.5v-8q20 -8 37 -24.5t24 -36.5h8q8 20 24.5 37t36.5 24zM391 -118v4q-6 45 -6 77q0 4 1 14v15h-11q-13 -62 -33 -86.5t-80 -24.5q-27 0 -50 13t-40.5 34.5t-27 48.5t-9.5 54q0 58 48.5 102t127.5 48
l-17 160h-10l-10 -81q-3 -20 -13 -30.5t-48 -25.5q-63 -23 -108 -70.5t-45 -101.5q0 -79 57 -127.5t145 -48.5q40 0 66 5.5t63 20.5z" />
    <glyph glyph-name="Agrave" unicode="&#xc0;" horiz-adv-x="706" 
d="M377 707l-51 169h-109l143 -169h17zM656 -6l-1 13q-6 0 -11 1q-37 4 -51 16.5t-14 42.5v17q0 96 -10.5 179t-36 156.5t-70 132t-109.5 97.5q-65 -39 -109.5 -97.5t-70 -132t-36 -156.5t-10.5 -179v-17q0 -30 -14 -42.5t-51 -16.5q-5 -1 -11 -1l-1 -13l14 1q58 5 78 5h38
q20 0 78 -5l14 -1l-1 13q-6 0 -11 1q-37 4 -51 16.5t-14 42.5v14q0 56 3 108h310q3 -51 3 -108v-14q0 -30 -14 -42.5t-51 -16.5q-5 -1 -11 -1l-1 -13l14 1q58 5 78 5h38q20 0 78 -5zM506 227h-306q13 165 52 263t101 133q62 -35 101 -133t52 -263z" />
    <glyph glyph-name="Aacute" unicode="&#xc1;" horiz-adv-x="706" 
d="M477 876h-109l-51 -169h17zM656 -6l-1 13q-6 0 -11 1q-37 4 -51 16.5t-14 42.5v17q0 96 -10.5 179t-36 156.5t-70 132t-109.5 97.5q-65 -39 -109.5 -97.5t-70 -132t-36 -156.5t-10.5 -179v-17q0 -30 -14 -42.5t-51 -16.5q-5 -1 -11 -1l-1 -13l14 1q58 5 78 5h38
q20 0 78 -5l14 -1l-1 13q-6 0 -11 1q-37 4 -51 16.5t-14 42.5v14q0 56 3 108h310q3 -51 3 -108v-14q0 -30 -14 -42.5t-51 -16.5q-5 -1 -11 -1l-1 -13l14 1q58 5 78 5h38q20 0 78 -5zM506 227h-306q13 165 52 263t101 133q62 -35 101 -133t52 -263z" />
    <glyph glyph-name="Acircumflex" unicode="&#xc2;" horiz-adv-x="706" 
d="M492 708l-93 161h-90l-92 -161h15l123 113l122 -113h15zM656 -6l-1 13q-6 0 -11 1q-37 4 -51 16.5t-14 42.5v17q0 96 -10.5 179t-36 156.5t-70 132t-109.5 97.5q-65 -39 -109.5 -97.5t-70 -132t-36 -156.5t-10.5 -179v-17q0 -30 -14 -42.5t-51 -16.5q-5 -1 -11 -1l-1 -13
l14 1q58 5 78 5h38q20 0 78 -5l14 -1l-1 13q-6 0 -11 1q-37 4 -51 16.5t-14 42.5v14q0 56 3 108h310q3 -51 3 -108v-14q0 -30 -14 -42.5t-51 -16.5q-5 -1 -11 -1l-1 -13l14 1q58 5 78 5h38q20 0 78 -5zM506 227h-306q13 165 52 263t101 133q62 -35 101 -133t52 -263z" />
    <glyph glyph-name="Atilde" unicode="&#xc3;" horiz-adv-x="706" 
d="M476 806h-20q-1 -26 -14 -39.5t-31 -13.5q-12 0 -23 5.5t-29 16.5l-1 1l-1 1q-27 16 -40.5 22.5t-31.5 6.5q-40 0 -59 -26.5t-22 -70.5h20q0 26 13 39t30 13q10 0 17 -3t29 -16v0q33 -20 48 -26.5t35 -6.5q8 0 19 2t25 11t24.5 29.5t11.5 54.5zM656 -6l-1 13q-6 0 -11 1
q-37 4 -51 16.5t-14 42.5v17q0 96 -10.5 179t-36 156.5t-70 132t-109.5 97.5q-65 -39 -109.5 -97.5t-70 -132t-36 -156.5t-10.5 -179v-17q0 -30 -14 -42.5t-51 -16.5q-5 -1 -11 -1l-1 -13l14 1q58 5 78 5h38q20 0 78 -5l14 -1l-1 13q-6 0 -11 1q-37 4 -51 16.5t-14 42.5v14
q0 56 3 108h310q3 -51 3 -108v-14q0 -30 -14 -42.5t-51 -16.5q-5 -1 -11 -1l-1 -13l14 1q58 5 78 5h38q20 0 78 -5zM506 227h-306q13 165 52 263t101 133q62 -35 101 -133t52 -263z" />
    <glyph glyph-name="Adieresis" unicode="&#xc4;" horiz-adv-x="706" 
d="M502 765v7q-18 7 -33.5 22.5t-22.5 33.5h-7q-7 -18 -22.5 -33.5t-33.5 -22.5v-7q18 -7 33.5 -22.5t22.5 -33.5h7q7 18 22.5 33.5t33.5 22.5zM316 765v7q-18 7 -33.5 22.5t-22.5 33.5h-7q-7 -18 -22.5 -33.5t-33.5 -22.5v-7q18 -7 33.5 -22.5t22.5 -33.5h7q7 18 22.5 33.5
t33.5 22.5zM656 -6l-1 13q-6 0 -11 1q-37 4 -51 16.5t-14 42.5v17q0 96 -10.5 179t-36 156.5t-70 132t-109.5 97.5q-65 -39 -109.5 -97.5t-70 -132t-36 -156.5t-10.5 -179v-17q0 -30 -14 -42.5t-51 -16.5q-5 -1 -11 -1l-1 -13l14 1q58 5 78 5h38q20 0 78 -5l14 -1l-1 13
q-6 0 -11 1q-37 4 -51 16.5t-14 42.5v14q0 56 3 108h310q3 -51 3 -108v-14q0 -30 -14 -42.5t-51 -16.5q-5 -1 -11 -1l-1 -13l14 1q58 5 78 5h38q20 0 78 -5zM506 227h-306q13 165 52 263t101 133q62 -35 101 -133t52 -263z" />
    <glyph glyph-name="Aring" unicode="&#xc5;" horiz-adv-x="706" 
d="M443 801q0 39 -27.5 66.5t-65.5 27.5q-39 0 -66.5 -27.5t-27.5 -66.5q0 -38 27.5 -65.5t66.5 -27.5q38 0 65.5 27.5t27.5 65.5zM409 801q0 -25 -17.5 -42t-41.5 -17q-25 0 -42.5 17t-17.5 42t17.5 42.5t42.5 17.5q24 0 41.5 -17.5t17.5 -42.5zM656 -6l-1 13q-6 0 -11 1
q-37 4 -51 16.5t-14 42.5v17q0 96 -10.5 179t-36 156.5t-70 132t-109.5 97.5q-65 -39 -109.5 -97.5t-70 -132t-36 -156.5t-10.5 -179v-17q0 -30 -14 -42.5t-51 -16.5q-5 -1 -11 -1l-1 -13l14 1q58 5 78 5h38q20 0 78 -5l14 -1l-1 13q-6 0 -11 1q-37 4 -51 16.5t-14 42.5v14
q0 56 3 108h310q3 -51 3 -108v-14q0 -30 -14 -42.5t-51 -16.5q-5 -1 -11 -1l-1 -13l14 1q58 5 78 5h38q20 0 78 -5zM506 227h-306q13 165 52 263t101 133q62 -35 101 -133t52 -263z" />
    <glyph glyph-name="AE" unicode="&#xc6;" horiz-adv-x="904" 
d="M817 119l-17 -2q-16 -26 -30 -41t-31 -23.5t-40.5 -12t-60.5 -3.5q-27 0 -39 28l-111 263h217v32h-231l-98 228l223 -2q25 0 38 -2.5t21.5 -9t14 -20.5t12.5 -41h14l-19 108h-347q-20 0 -78 5l-14 1l1 -13q6 0 11 -1q24 -2 39 -14.5t15 -30.5q0 -9 -4 -18l-188 -491
q-14 -38 -46 -38q-14 0 -35 6q-5 1 -11 3l-6 -12l14 -4q51 -13 74 -23l8 -3q23 -9 71 -33l13 -5l3 12q-5 2 -10 5q-45 23 -45 51q0 11 6 27l36 95h307l39 -93q7 -17 7 -30q0 -26 -43 -50q-5 -3 -10 -5l4 -12l13 6q9 4 29 14q34 19 58 25q23 6 74 6q34 0 64 -2t44 -3
q3 10 6 23q5 25 12 45.5t26 54.5zM480 172h-281l134 348z" />
    <glyph glyph-name="Ccedilla" unicode="&#xc7;" horiz-adv-x="735" 
d="M667 169h-17q-10 -91 -59 -126t-139 -35q-56 0 -106.5 21t-90 60t-63 93.5t-26.5 119.5q0 65 19 122t54 100t83 66.5t104 23.5q85 0 138 -31t76 -109h11l-7 128q-8 -5 -18 -5q-12 0 -43 12q-34 13 -66.5 20.5t-77.5 7.5q-76 0 -142 -26.5t-115 -73.5t-75.5 -108
t-26.5 -128q0 -60 21 -112.5t59 -93t89.5 -67t112.5 -36.5l-83 -106l21 13q10 6 19 9.5t22 3.5q22 0 37.5 -13t15.5 -31q0 -19 -16 -36.5t-37 -17.5q-11 0 -27 3.5t-25 8.5l-9 -19q36 -16 58 -16q41 0 68 24.5t27 59.5q0 25 -16.5 46t-43.5 31l24 35q28 -2 42 -2
q57 0 120 15q30 7 54 16.5t38 19.5z" />
    <glyph glyph-name="Egrave" unicode="&#xc8;" horiz-adv-x="596" 
d="M333 707l-51 169h-109l143 -169h17zM529 119l-17 -2q-17 -28 -28 -42t-24 -23t-31 -12.5t-46 -3.5h-107q-36 0 -43.5 8.5t-7.5 49.5v234h226v32h-226v228l178 -2q25 0 38 -2.5t21.5 -9t14 -20.5t12.5 -41h14l-19 108h-312q-20 0 -78 5l-14 1l1 -13q6 0 11 -1
q37 -4 51 -16.5t14 -42.5v-486q0 -30 -14 -42.5t-51 -16.5q-5 -1 -11 -1l-1 -13l14 1q58 5 78 5h156q15 0 45 -1t48.5 -1.5t38 -1.5t25.5 -1q3 10 6 23q5 25 12 45.5t26 54.5z" />
    <glyph glyph-name="Eacute" unicode="&#xc9;" horiz-adv-x="596" 
d="M438 876h-109l-51 -169h17zM529 119l-17 -2q-17 -28 -28 -42t-24 -23t-31 -12.5t-46 -3.5h-107q-36 0 -43.5 8.5t-7.5 49.5v234h226v32h-226v228l178 -2q25 0 38 -2.5t21.5 -9t14 -20.5t12.5 -41h14l-19 108h-312q-20 0 -78 5l-14 1l1 -13q6 0 11 -1q37 -4 51 -16.5
t14 -42.5v-486q0 -30 -14 -42.5t-51 -16.5q-5 -1 -11 -1l-1 -13l14 1q58 5 78 5h156q15 0 45 -1t48.5 -1.5t38 -1.5t25.5 -1q3 10 6 23q5 25 12 45.5t26 54.5z" />
    <glyph glyph-name="Ecircumflex" unicode="&#xca;" horiz-adv-x="596" 
d="M449 708l-93 161h-90l-92 -161h15l123 113l122 -113h15zM529 119l-17 -2q-17 -28 -28 -42t-24 -23t-31 -12.5t-46 -3.5h-107q-36 0 -43.5 8.5t-7.5 49.5v234h226v32h-226v228l178 -2q25 0 38 -2.5t21.5 -9t14 -20.5t12.5 -41h14l-19 108h-312q-20 0 -78 5l-14 1l1 -13
q6 0 11 -1q37 -4 51 -16.5t14 -42.5v-486q0 -30 -14 -42.5t-51 -16.5q-5 -1 -11 -1l-1 -13l14 1q58 5 78 5h156q15 0 45 -1t48.5 -1.5t38 -1.5t25.5 -1q3 10 6 23q5 25 12 45.5t26 54.5z" />
    <glyph glyph-name="Edieresis" unicode="&#xcb;" horiz-adv-x="596" 
d="M465 765v7q-18 7 -33.5 22.5t-22.5 33.5h-7q-7 -18 -22.5 -33.5t-33.5 -22.5v-7q18 -7 33.5 -22.5t22.5 -33.5h7q7 18 22.5 33.5t33.5 22.5zM279 765v7q-18 7 -33.5 22.5t-22.5 33.5h-7q-7 -18 -22.5 -33.5t-33.5 -22.5v-7q18 -7 33.5 -22.5t22.5 -33.5h7q7 18 22.5 33.5
t33.5 22.5zM529 119l-17 -2q-17 -28 -28 -42t-24 -23t-31 -12.5t-46 -3.5h-107q-36 0 -43.5 8.5t-7.5 49.5v234h226v32h-226v228l178 -2q25 0 38 -2.5t21.5 -9t14 -20.5t12.5 -41h14l-19 108h-312q-20 0 -78 5l-14 1l1 -13q6 0 11 -1q37 -4 51 -16.5t14 -42.5v-486
q0 -30 -14 -42.5t-51 -16.5q-5 -1 -11 -1l-1 -13l14 1q58 5 78 5h156q15 0 45 -1t48.5 -1.5t38 -1.5t25.5 -1q3 10 6 23q5 25 12 45.5t26 54.5z" />
    <glyph glyph-name="Igrave" unicode="&#xcc;" horiz-adv-x="402" 
d="M210 707l-51 169h-109l143 -169h17zM312 -5l-1 13q-6 0 -11 1q-37 4 -51 16.5t-14 42.5v486q0 30 14 42.5t51 16.5q5 1 11 1l1 13l-14 -1q-58 -5 -78 -5h-38q-20 0 -78 5l-14 1l1 -13q6 0 11 -1q37 -4 51 -16.5t14 -42.5v-486q0 -30 -14 -42.5t-51 -16.5q-5 -1 -11 -1
l-1 -13l14 1q58 5 78 5h38q20 0 78 -5z" />
    <glyph glyph-name="Iacute" unicode="&#xcd;" horiz-adv-x="402" 
d="M330 876h-109l-51 -169h17zM312 -5l-1 13q-6 0 -11 1q-37 4 -51 16.5t-14 42.5v486q0 30 14 42.5t51 16.5q5 1 11 1l1 13l-14 -1q-58 -5 -78 -5h-38q-20 0 -78 5l-14 1l1 -13q6 0 11 -1q37 -4 51 -16.5t14 -42.5v-486q0 -30 -14 -42.5t-51 -16.5q-5 -1 -11 -1l-1 -13
l14 1q58 5 78 5h38q20 0 78 -5z" />
    <glyph glyph-name="Icircumflex" unicode="&#xce;" horiz-adv-x="402" 
d="M335 708l-93 161h-90l-92 -161h15l123 113l122 -113h15zM312 -5l-1 13q-6 0 -11 1q-37 4 -51 16.5t-14 42.5v486q0 30 14 42.5t51 16.5q5 1 11 1l1 13l-14 -1q-58 -5 -78 -5h-38q-20 0 -78 5l-14 1l1 -13q6 0 11 -1q37 -4 51 -16.5t14 -42.5v-486q0 -30 -14 -42.5
t-51 -16.5q-5 -1 -11 -1l-1 -13l14 1q58 5 78 5h38q20 0 78 -5z" />
    <glyph glyph-name="Idieresis" unicode="&#xcf;" horiz-adv-x="402" 
d="M357 765v7q-18 7 -33.5 22.5t-22.5 33.5h-7q-7 -18 -22.5 -33.5t-33.5 -22.5v-7q18 -7 33.5 -22.5t22.5 -33.5h7q7 18 22.5 33.5t33.5 22.5zM171 765v7q-18 7 -33.5 22.5t-22.5 33.5h-7q-7 -18 -22.5 -33.5t-33.5 -22.5v-7q18 -7 33.5 -22.5t22.5 -33.5h7q7 18 22.5 33.5
t33.5 22.5zM312 -5l-1 13q-6 0 -11 1q-37 4 -51 16.5t-14 42.5v486q0 30 14 42.5t51 16.5q5 1 11 1l1 13l-14 -1q-58 -5 -78 -5h-38q-20 0 -78 5l-14 1l1 -13q6 0 11 -1q37 -4 51 -16.5t14 -42.5v-486q0 -30 -14 -42.5t-51 -16.5q-5 -1 -11 -1l-1 -13l14 1q58 5 78 5h38
q20 0 78 -5z" />
    <glyph glyph-name="Eth" unicode="&#xd0;" horiz-adv-x="816" 
d="M736 323q0 67 -27.5 123t-77 96.5t-115 62t-139.5 21.5q-16 0 -61 -1t-70.5 -1.5t-44.5 -1.5t-29 -1q-20 0 -78 5l-14 1l1 -13q6 0 11 -1q37 -4 51 -16.5t14 -42.5v-224h-117v-46h117v-216q0 -30 -14 -42.5t-51 -16.5q-5 -1 -11 -1l-1 -13l14 1q58 5 78 5q38 0 105 -1
t100 -1q76 0 142.5 25.5t115 71t75 104.5t26.5 123zM656 320q0 -59 -20.5 -113t-58.5 -95.5t-89.5 -65t-111.5 -23.5q-48 0 -77 4.5t-45.5 14.5t-22.5 26.5t-6 43.5v172h142v46h-142v265q8 0 23.5 0.5t42.5 1.5t50.5 1.5t34.5 0.5q57 0 108.5 -20t90 -57t60 -88.5
t21.5 -113.5z" />
    <glyph glyph-name="Ntilde" unicode="&#xd1;" horiz-adv-x="734" 
d="M511 806h-20q-1 -26 -14 -39.5t-31 -13.5q-12 0 -23 5.5t-29 16.5l-1 1l-1 1q-27 16 -40.5 22.5t-31.5 6.5q-40 0 -59 -26.5t-22 -70.5h20q0 26 13 39t30 13q10 0 17 -3t29 -16v0q33 -20 48 -26.5t35 -6.5q8 0 19 2t25 11t24.5 29.5t11.5 54.5zM689 -5l-1 13q-6 0 -11 1
q-37 4 -51 16.5t-14 42.5v486q0 30 14 42.5t51 16.5q5 1 11 1l1 13l-14 -1q-58 -5 -78 -5h-425q-20 0 -78 5l-14 1l1 -13q6 0 11 -1q37 -4 51 -16.5t14 -42.5v-486q0 -30 -14 -42.5t-51 -16.5q-5 -1 -11 -1l-1 -13l14 1q58 5 78 5h38q20 0 78 -5l14 -1l-1 13q-6 0 -11 1
q-37 4 -51 16.5t-14 42.5v515h319v-515q0 -30 -14 -42.5t-51 -16.5q-5 -1 -11 -1l-1 -13l14 1q58 5 78 5h38q20 0 78 -5z" />
    <glyph glyph-name="Ograve" unicode="&#xd2;" horiz-adv-x="876" 
d="M461 707l-51 169h-109l143 -169h17zM798 321q0 70 -27.5 128.5t-77 100.5t-115 64.5t-139.5 22.5q-76 0 -142 -26.5t-115 -73.5t-75.5 -108t-26.5 -128q0 -70 27.5 -128.5t77 -100.5t115 -64.5t139.5 -22.5q76 0 142 26.5t115 73.5t75.5 108t26.5 128zM729 311
q2 -17 2 -34q0 -55 -18.5 -102.5t-53 -83.5t-83 -56t-106.5 -20q-66 0 -122.5 23t-99 63.5t-68 94.5t-31.5 115q-2 17 -2 34q0 55 18.5 102.5t53 83.5t83 56t106.5 20q66 0 122.5 -22.5t99 -63.5t68 -95t31.5 -115z" />
    <glyph glyph-name="Oacute" unicode="&#xd3;" horiz-adv-x="876" 
d="M582 876h-109l-51 -169h17zM798 321q0 70 -27.5 128.5t-77 100.5t-115 64.5t-139.5 22.5q-76 0 -142 -26.5t-115 -73.5t-75.5 -108t-26.5 -128q0 -70 27.5 -128.5t77 -100.5t115 -64.5t139.5 -22.5q76 0 142 26.5t115 73.5t75.5 108t26.5 128zM729 311q2 -17 2 -34
q0 -55 -18.5 -102.5t-53 -83.5t-83 -56t-106.5 -20q-66 0 -122.5 23t-99 63.5t-68 94.5t-31.5 115q-2 17 -2 34q0 55 18.5 102.5t53 83.5t83 56t106.5 20q66 0 122.5 -22.5t99 -63.5t68 -95t31.5 -115z" />
    <glyph glyph-name="Ocircumflex" unicode="&#xd4;" horiz-adv-x="876" 
d="M584 708l-93 161h-90l-92 -161h15l123 113l122 -113h15zM798 321q0 70 -27.5 128.5t-77 100.5t-115 64.5t-139.5 22.5q-76 0 -142 -26.5t-115 -73.5t-75.5 -108t-26.5 -128q0 -70 27.5 -128.5t77 -100.5t115 -64.5t139.5 -22.5q76 0 142 26.5t115 73.5t75.5 108t26.5 128
zM729 311q2 -17 2 -34q0 -55 -18.5 -102.5t-53 -83.5t-83 -56t-106.5 -20q-66 0 -122.5 23t-99 63.5t-68 94.5t-31.5 115q-2 17 -2 34q0 55 18.5 102.5t53 83.5t83 56t106.5 20q66 0 122.5 -22.5t99 -63.5t68 -95t31.5 -115z" />
    <glyph glyph-name="Otilde" unicode="&#xd5;" horiz-adv-x="876" 
d="M557 806h-20q-1 -26 -14 -39.5t-31 -13.5q-12 0 -23 5.5t-29 16.5l-1 1l-1 1q-27 16 -40.5 22.5t-31.5 6.5q-40 0 -59 -26.5t-22 -70.5h20q0 26 13 39t30 13q10 0 17 -3t29 -16v0q33 -20 48 -26.5t35 -6.5q8 0 19 2t25 11t24.5 29.5t11.5 54.5zM798 321q0 70 -27.5 128.5
t-77 100.5t-115 64.5t-139.5 22.5q-76 0 -142 -26.5t-115 -73.5t-75.5 -108t-26.5 -128q0 -70 27.5 -128.5t77 -100.5t115 -64.5t139.5 -22.5q76 0 142 26.5t115 73.5t75.5 108t26.5 128zM729 311q2 -17 2 -34q0 -55 -18.5 -102.5t-53 -83.5t-83 -56t-106.5 -20
q-66 0 -122.5 23t-99 63.5t-68 94.5t-31.5 115q-2 17 -2 34q0 55 18.5 102.5t53 83.5t83 56t106.5 20q66 0 122.5 -22.5t99 -63.5t68 -95t31.5 -115z" />
    <glyph glyph-name="Odieresis" unicode="&#xd6;" horiz-adv-x="876" 
d="M582 765v7q-18 7 -33.5 22.5t-22.5 33.5h-7q-7 -18 -22.5 -33.5t-33.5 -22.5v-7q18 -7 33.5 -22.5t22.5 -33.5h7q7 18 22.5 33.5t33.5 22.5zM396 765v7q-18 7 -33.5 22.5t-22.5 33.5h-7q-7 -18 -22.5 -33.5t-33.5 -22.5v-7q18 -7 33.5 -22.5t22.5 -33.5h7q7 18 22.5 33.5
t33.5 22.5zM798 321q0 70 -27.5 128.5t-77 100.5t-115 64.5t-139.5 22.5q-76 0 -142 -26.5t-115 -73.5t-75.5 -108t-26.5 -128q0 -70 27.5 -128.5t77 -100.5t115 -64.5t139.5 -22.5q76 0 142 26.5t115 73.5t75.5 108t26.5 128zM729 311q2 -17 2 -34q0 -55 -18.5 -102.5
t-53 -83.5t-83 -56t-106.5 -20q-66 0 -122.5 23t-99 63.5t-68 94.5t-31.5 115q-2 17 -2 34q0 55 18.5 102.5t53 83.5t83 56t106.5 20q66 0 122.5 -22.5t99 -63.5t68 -95t31.5 -115z" />
    <glyph glyph-name="multiply" unicode="&#xd7;" horiz-adv-x="668" 
d="M575 525l-37 38l-204 -205l-204 205l-36 -38l203 -204l-203 -202l37 -37l204 202l201 -202l37 37l-202 202z" />
    <glyph glyph-name="Oslash" unicode="&#xd8;" horiz-adv-x="876" 
d="M798 321q0 75 -32 137.5t-90 104.5l82 94l-23 20q-3 -3 -25 -28.5t-31.5 -36.5t-27.5 -32q-44 28 -98.5 42.5t-113.5 14.5q-76 0 -142 -26.5t-115 -73.5t-75.5 -108t-26.5 -128q0 -75 32 -137.5t89 -104.5l-80 -94l22 -20l84 97q44 -28 98.5 -42.5t113.5 -14.5
q76 0 142 26.5t115 73.5t75.5 108t26.5 128zM729 311q2 -17 2 -34q0 -55 -18.5 -102.5t-53 -83.5t-83 -56t-106.5 -20q-59 0 -111 18.5t-94 52.5l370 429q40 -40 64 -92t30 -112zM612 535l-369 -428q-40 40 -64 92t-30 112q-2 17 -2 34q0 55 18.5 102.5t53 83.5t83 56
t106.5 20q60 0 111.5 -18.5t92.5 -53.5z" />
    <glyph glyph-name="Ugrave" unicode="&#xd9;" horiz-adv-x="746" 
d="M399 707l-51 169h-109l143 -169h17zM696 628l-14 -1q-58 -5 -78 -5h-38q-20 0 -78 5l-14 1l1 -13q6 0 11 -1q37 -4 51 -16.5t14 -42.5v-14q0 -117 -14 -209.5t-38 -159t-56 -109t-70 -64.5q-37 21 -69 64t-56.5 110t-38.5 159t-14 209v14q0 30 14 42.5t51 16.5q5 1 11 1
l1 13l-14 -1q-58 -5 -78 -5h-38q-20 0 -78 5l-14 1l1 -13q6 0 11 -1q37 -4 51 -16.5t14 -42.5v-17q0 -93 13.5 -177t43 -157.5t76.5 -132.5t113 -98q66 39 113 98t76.5 132.5t43 157.5t13.5 177v17q0 30 14 42.5t51 16.5q5 1 11 1z" />
    <glyph glyph-name="Uacute" unicode="&#xda;" horiz-adv-x="746" 
d="M527 876h-109l-51 -169h17zM696 628l-14 -1q-58 -5 -78 -5h-38q-20 0 -78 5l-14 1l1 -13q6 0 11 -1q37 -4 51 -16.5t14 -42.5v-14q0 -117 -14 -209.5t-38 -159t-56 -109t-70 -64.5q-37 21 -69 64t-56.5 110t-38.5 159t-14 209v14q0 30 14 42.5t51 16.5q5 1 11 1l1 13
l-14 -1q-58 -5 -78 -5h-38q-20 0 -78 5l-14 1l1 -13q6 0 11 -1q37 -4 51 -16.5t14 -42.5v-17q0 -93 13.5 -177t43 -157.5t76.5 -132.5t113 -98q66 39 113 98t76.5 132.5t43 157.5t13.5 177v17q0 30 14 42.5t51 16.5q5 1 11 1z" />
    <glyph glyph-name="Ucircumflex" unicode="&#xdb;" horiz-adv-x="746" 
d="M516 708l-93 161h-90l-92 -161h15l123 113l122 -113h15zM696 628l-14 -1q-58 -5 -78 -5h-38q-20 0 -78 5l-14 1l1 -13q6 0 11 -1q37 -4 51 -16.5t14 -42.5v-14q0 -117 -14 -209.5t-38 -159t-56 -109t-70 -64.5q-37 21 -69 64t-56.5 110t-38.5 159t-14 209v14
q0 30 14 42.5t51 16.5q5 1 11 1l1 13l-14 -1q-58 -5 -78 -5h-38q-20 0 -78 5l-14 1l1 -13q6 0 11 -1q37 -4 51 -16.5t14 -42.5v-17q0 -93 13.5 -177t43 -157.5t76.5 -132.5t113 -98q66 39 113 98t76.5 132.5t43 157.5t13.5 177v17q0 30 14 42.5t51 16.5q5 1 11 1z" />
    <glyph glyph-name="Udieresis" unicode="&#xdc;" horiz-adv-x="746" 
d="M529 765v7q-18 7 -33.5 22.5t-22.5 33.5h-7q-7 -18 -22.5 -33.5t-33.5 -22.5v-7q18 -7 33.5 -22.5t22.5 -33.5h7q7 18 22.5 33.5t33.5 22.5zM343 765v7q-18 7 -33.5 22.5t-22.5 33.5h-7q-7 -18 -22.5 -33.5t-33.5 -22.5v-7q18 -7 33.5 -22.5t22.5 -33.5h7q7 18 22.5 33.5
t33.5 22.5zM696 628l-14 -1q-58 -5 -78 -5h-38q-20 0 -78 5l-14 1l1 -13q6 0 11 -1q37 -4 51 -16.5t14 -42.5v-14q0 -117 -14 -209.5t-38 -159t-56 -109t-70 -64.5q-37 21 -69 64t-56.5 110t-38.5 159t-14 209v14q0 30 14 42.5t51 16.5q5 1 11 1l1 13l-14 -1q-58 -5 -78 -5
h-38q-20 0 -78 5l-14 1l1 -13q6 0 11 -1q37 -4 51 -16.5t14 -42.5v-17q0 -93 13.5 -177t43 -157.5t76.5 -132.5t113 -98q66 39 113 98t76.5 132.5t43 157.5t13.5 177v17q0 30 14 42.5t51 16.5q5 1 11 1z" />
    <glyph glyph-name="Yacute" unicode="&#xdd;" horiz-adv-x="677" 
d="M470 876h-109l-51 -169h17zM667 627l-14 -1q-58 -5 -78 -5h-38q-20 0 -78 5l-14 1l1 -13q6 0 11 -1q31 -3 48 -10.5t17 -24.5q0 -12 -10 -28l-157 -252l-169 270q-7 11 -7 19q0 13 15.5 18t42.5 8h3q5 1 11 1l1 13l-14 -1q-24 -2 -49 -3.5t-39 -1.5h-38q-14 0 -39 1.5
t-49 3.5l-14 1l1 -13q6 0 11 -1q20 -2 32.5 -5.5t23 -11t22 -22t27.5 -40.5l182 -290v-176q0 -30 -14 -42.5t-51 -16.5q-5 -1 -11 -1l-1 -13l14 1q58 5 78 5h38q20 0 78 -5l14 -1l-1 13q-6 0 -11 1q-37 4 -51 16.5t-14 42.5v195l162 258q32 51 55.5 69.5t60.5 22.5q5 1 11 1
z" />
    <glyph glyph-name="Thorn" unicode="&#xde;" horiz-adv-x="590" 
d="M547 354q0 67 -59.5 111.5t-159.5 44.5q-19 0 -71 -2q-23 -1 -32 -1v47q0 30 14 42.5t51 16.5q5 1 11 1l1 13l-14 -1q-58 -5 -78 -5h-38q-20 0 -78 5l-14 1l1 -13q6 0 11 -1q37 -4 51 -16.5t14 -42.5v-486q0 -30 -14 -42.5t-51 -16.5q-5 -1 -11 -1l-1 -13l14 1q58 5 78 5
h38q20 0 78 -5l14 -1l-1 13q-6 0 -11 1q-37 4 -51 16.5t-14 42.5v370q0 34 13 41.5t62 7.5q86 0 133.5 -45.5t47.5 -110.5q0 -38 -15.5 -69.5t-43 -54t-63 -34t-74.5 -11.5q-17 0 -25 1v-9q15 -3 34 -3q50 0 96 15t81.5 42t55.5 64.5t20 81.5z" />
    <glyph glyph-name="germandbls" unicode="&#xdf;" horiz-adv-x="624" 
d="M547 177q0 72 -47 115t-130 58q80 24 120 63t40 90q0 27 -13.5 51t-38.5 43t-59 29.5t-73 10.5q-36 0 -66.5 -6.5t-59 -29.5t-46.5 -71.5t-18 -126.5v-58h-71v-28h71v-249q0 -30 -14 -42.5t-51 -16.5q-5 -1 -11 -1l-1 -13l14 1q58 5 78 5h38q20 0 78 -5l14 -1l-1 13
q-6 0 -11 1q-37 4 -51 16.5t-14 42.5v371q0 92 29.5 137t81.5 45t82.5 -31t30.5 -90q0 -64 -41.5 -101.5t-127.5 -44.5v-15q61 0 89 -5q49 -10 76.5 -57.5t27.5 -113.5q0 -59 -16 -98.5t-39 -39.5q-9 0 -30 10l-12 7q-11 5 -18 5q-10 0 -17 -8t-7 -19q0 -14 13 -23t33 -9
q71 0 119.5 52t48.5 137z" />
    <glyph glyph-name="agrave" unicode="&#xe0;" 
d="M310 523l-51 169h-109l143 -169h17zM540 -5l-1 14q-6 0 -11 1q-35 4 -45 15.5t-10 43.5v6q-2 130 -48 231.5t-138 154.5q-91 -53 -137 -156t-48 -232v-4q0 -32 -10 -43.5t-45 -15.5q-5 -1 -11 -1l-1 -14l14 1q10 1 25 2q29 3 43 3h36q14 0 43 -3q15 -1 25 -2l14 -1l-1 14
q-6 0 -11 1q-35 4 -45 15.5t-10 43.5v4q0 21 2 59h235q2 -36 2 -57v-6q0 -32 -10 -43.5t-45 -15.5q-5 -1 -11 -1l-1 -14l14 1q10 1 25 2q29 3 43 3h36q14 0 43 -3q15 -1 25 -2zM402 165h-230q10 112 40 179.5t75 91.5q45 -25 75.5 -92.5t39.5 -178.5z" />
    <glyph glyph-name="aacute" unicode="&#xe1;" 
d="M418 692h-109l-51 -169h17zM540 -5l-1 14q-6 0 -11 1q-35 4 -45 15.5t-10 43.5v6q-2 130 -48 231.5t-138 154.5q-91 -53 -137 -156t-48 -232v-4q0 -32 -10 -43.5t-45 -15.5q-5 -1 -11 -1l-1 -14l14 1q10 1 25 2q29 3 43 3h36q14 0 43 -3q15 -1 25 -2l14 -1l-1 14
q-6 0 -11 1q-35 4 -45 15.5t-10 43.5v4q0 21 2 59h235q2 -36 2 -57v-6q0 -32 -10 -43.5t-45 -15.5q-5 -1 -11 -1l-1 -14l14 1q10 1 25 2q29 3 43 3h36q14 0 43 -3q15 -1 25 -2zM402 165h-230q10 112 40 179.5t75 91.5q45 -25 75.5 -92.5t39.5 -178.5z" />
    <glyph glyph-name="acircumflex" unicode="&#xe2;" 
d="M420 521l-93 161h-90l-92 -161h15l123 113l122 -113h15zM540 -5l-1 14q-6 0 -11 1q-35 4 -45 15.5t-10 43.5v6q-2 130 -48 231.5t-138 154.5q-91 -53 -137 -156t-48 -232v-4q0 -32 -10 -43.5t-45 -15.5q-5 -1 -11 -1l-1 -14l14 1q10 1 25 2q29 3 43 3h36q14 0 43 -3
q15 -1 25 -2l14 -1l-1 14q-6 0 -11 1q-35 4 -45 15.5t-10 43.5v4q0 21 2 59h235q2 -36 2 -57v-6q0 -32 -10 -43.5t-45 -15.5q-5 -1 -11 -1l-1 -14l14 1q10 1 25 2q29 3 43 3h36q14 0 43 -3q15 -1 25 -2zM402 165h-230q10 112 40 179.5t75 91.5q45 -25 75.5 -92.5
t39.5 -178.5z" />
    <glyph glyph-name="atilde" unicode="&#xe3;" 
d="M420 619h-20q-1 -26 -14 -39.5t-31 -13.5q-12 0 -23 5.5t-29 16.5l-1 1l-1 1q-27 16 -40.5 22.5t-31.5 6.5q-40 0 -59 -26.5t-22 -70.5h20q0 26 13 39t30 13q10 0 17 -3t29 -16v0q33 -20 48 -26.5t35 -6.5q8 0 19 2t25 11t24.5 29.5t11.5 54.5zM540 -5l-1 14q-6 0 -11 1
q-35 4 -45 15.5t-10 43.5v6q-2 130 -48 231.5t-138 154.5q-91 -53 -137 -156t-48 -232v-4q0 -32 -10 -43.5t-45 -15.5q-5 -1 -11 -1l-1 -14l14 1q10 1 25 2q29 3 43 3h36q14 0 43 -3q15 -1 25 -2l14 -1l-1 14q-6 0 -11 1q-35 4 -45 15.5t-10 43.5v4q0 21 2 59h235
q2 -36 2 -57v-6q0 -32 -10 -43.5t-45 -15.5q-5 -1 -11 -1l-1 -14l14 1q10 1 25 2q29 3 43 3h36q14 0 43 -3q15 -1 25 -2zM402 165h-230q10 112 40 179.5t75 91.5q45 -25 75.5 -92.5t39.5 -178.5z" />
    <glyph glyph-name="adieresis" unicode="&#xe4;" 
d="M540 -5l-1 14q-6 0 -11 1q-35 4 -45 15.5t-10 43.5v6q-2 130 -48 231.5t-138 154.5q-91 -53 -137 -156t-48 -232v-4q0 -32 -10 -43.5t-45 -15.5q-5 -1 -11 -1l-1 -14l14 1q10 1 25 2q29 3 43 3h36q14 0 43 -3q15 -1 25 -2l14 -1l-1 14q-6 0 -11 1q-35 4 -45 15.5
t-10 43.5v4q0 21 2 59h235q2 -36 2 -57v-6q0 -32 -10 -43.5t-45 -15.5q-5 -1 -11 -1l-1 -14l14 1q10 1 25 2q29 3 43 3h36q14 0 43 -3q15 -1 25 -2zM402 165h-230q10 112 40 179.5t75 91.5q45 -25 75.5 -92.5t39.5 -178.5zM447 578v7q-20 8 -36.5 23t-24.5 33h-7
q-8 -18 -24.5 -33t-35.5 -23v-7q19 -7 35.5 -22.5t24.5 -33.5h7q8 18 24.5 33.5t36.5 22.5zM247 578v7q-20 8 -36.5 23t-24.5 33h-7q-8 -18 -24.5 -33.5t-35.5 -22.5v-7q19 -7 35.5 -22.5t24.5 -33.5h7q8 18 24.5 33.5t36.5 22.5z" />
    <glyph glyph-name="aring" unicode="&#xe5;" 
d="M372 615q0 39 -27.5 66.5t-65.5 27.5q-39 0 -66.5 -27.5t-27.5 -66.5q0 -38 27.5 -65.5t66.5 -27.5q38 0 65.5 27.5t27.5 65.5zM338 615q0 -25 -17.5 -42t-41.5 -17q-25 0 -42.5 17t-17.5 42t17.5 42.5t42.5 17.5q24 0 41.5 -17.5t17.5 -42.5zM540 -5l-1 14q-6 0 -11 1
q-35 4 -45 15.5t-10 43.5v6q-2 130 -48 231.5t-138 154.5q-91 -53 -137 -156t-48 -232v-4q0 -32 -10 -43.5t-45 -15.5q-5 -1 -11 -1l-1 -14l14 1q10 1 25 2q29 3 43 3h36q14 0 43 -3q15 -1 25 -2l14 -1l-1 14q-6 0 -11 1q-35 4 -45 15.5t-10 43.5v4q0 21 2 59h235
q2 -36 2 -57v-6q0 -32 -10 -43.5t-45 -15.5q-5 -1 -11 -1l-1 -14l14 1q10 1 25 2q29 3 43 3h36q14 0 43 -3q15 -1 25 -2zM402 165h-230q10 112 40 179.5t75 91.5q45 -25 75.5 -92.5t39.5 -178.5z" />
    <glyph glyph-name="ae" unicode="&#xe6;" horiz-adv-x="655" 
d="M613 90l-22 -2l-2 -3q-20 -35 -33.5 -44.5t-49.5 -9.5h-10q-25 0 -40.5 8t-25.5 30l-70 161h150v28h-163l-69 154l165 -2q32 -1 41.5 -8.5t18.5 -41.5l16 -1l-17 82h-266q-8 1 -29.5 2.5t-38.5 2.5l-14 1l1 -14q6 0 11 -1q23 -2 36.5 -11t13.5 -24q0 -9 -5 -21l-121 -300
q-9 -22 -17.5 -30.5t-24.5 -8.5q-12 0 -31 5q-5 1 -11 4l-6 -13l13 -4q11 -4 32 -10q23 -7 33 -11l3 -1q9 -4 30 -14q19 -10 31 -16l13 -7l4 14q-6 2 -10 5q-20 11 -29 21t-9 22q0 11 9 32l14 34h216l18 -41q10 -22 10 -34q0 -11 -8 -20.5t-28 -21.5q-5 -3 -10 -5l5 -14
l12 7q23 13 32.5 17.5t27.5 9.5q14 3 31 4t26 1q11 0 52 -1.5t57 -1.5l3 10q5 21 11.5 37t23.5 45zM336 129h-190l90 224z" />
    <glyph glyph-name="ccedilla" unicode="&#xe7;" horiz-adv-x="550" 
d="M494 124h-18q-7 -64 -41.5 -88t-98.5 -24q-40 0 -75.5 14.5t-63.5 41t-45 64t-19 82.5q0 45 13.5 84.5t38.5 69t59 46t74 16.5q61 0 98.5 -21.5t53.5 -75.5l14 -1l-7 98q-7 -4 -15 -4q-9 0 -33 9q-25 10 -48 16t-54 6q-55 0 -103.5 -19t-84 -53t-55 -78.5t-19.5 -92.5
q0 -81 49 -138.5t128 -79.5l-87 -110l21 13q10 6 19 9.5t22 3.5q22 0 37.5 -13t15.5 -31q0 -19 -16 -36.5t-37 -17.5q-11 0 -27 3.5t-25 8.5l-9 -19q36 -16 58 -16q41 0 68 24.5t27 59.5q0 25 -16.5 46t-43.5 31l25 37q23 -4 53 -4q40 0 86 13t69 29z" />
    <glyph glyph-name="egrave" unicode="&#xe8;" horiz-adv-x="460" 
d="M304 523l-51 169h-109l143 -169h17zM418 90l-22 -2q-21 -36 -37 -46.5t-53 -10.5h-77q-24 0 -29 5.5t-5 32.5v161h163v28h-163v154l125 -2q32 -1 41.5 -8.5t18.5 -41.5l16 -1l-17 82h-232q-14 0 -43 3q-15 1 -25 2l-14 1l1 -14q6 0 11 -1q35 -4 45 -15.5t10 -43.5v-304
q0 -32 -10 -43.5t-45 -15.5q-5 -1 -11 -1l-1 -14l14 1q10 1 25 2q29 3 43 3h119q5 0 51 -1.5t63 -1.5l3 10q5 21 11.5 37t23.5 45z" />
    <glyph glyph-name="eacute" unicode="&#xe9;" horiz-adv-x="460" 
d="M367 692h-109l-51 -169h17zM418 90l-22 -2q-21 -36 -37 -46.5t-53 -10.5h-77q-24 0 -29 5.5t-5 32.5v161h163v28h-163v154l125 -2q32 -1 41.5 -8.5t18.5 -41.5l16 -1l-17 82h-232q-14 0 -43 3q-15 1 -25 2l-14 1l1 -14q6 0 11 -1q35 -4 45 -15.5t10 -43.5v-304
q0 -32 -10 -43.5t-45 -15.5q-5 -1 -11 -1l-1 -14l14 1q10 1 25 2q29 3 43 3h119q5 0 51 -1.5t63 -1.5l3 10q5 21 11.5 37t23.5 45z" />
    <glyph glyph-name="ecircumflex" unicode="&#xea;" horiz-adv-x="460" 
d="M383 521l-93 161h-90l-92 -161h15l123 113l122 -113h15zM418 90l-22 -2q-21 -36 -37 -46.5t-53 -10.5h-77q-24 0 -29 5.5t-5 32.5v161h163v28h-163v154l125 -2q32 -1 41.5 -8.5t18.5 -41.5l16 -1l-17 82h-232q-14 0 -43 3q-15 1 -25 2l-14 1l1 -14q6 0 11 -1
q35 -4 45 -15.5t10 -43.5v-304q0 -32 -10 -43.5t-45 -15.5q-5 -1 -11 -1l-1 -14l14 1q10 1 25 2q29 3 43 3h119q5 0 51 -1.5t63 -1.5l3 10q5 21 11.5 37t23.5 45z" />
    <glyph glyph-name="edieresis" unicode="&#xeb;" horiz-adv-x="460" 
d="M393 578v7q-18 7 -33.5 22.5t-22.5 33.5h-7q-7 -18 -22.5 -33.5t-33.5 -22.5v-7q18 -7 33.5 -22.5t22.5 -33.5h7q7 18 22.5 33.5t33.5 22.5zM207 578v7q-18 7 -33.5 22.5t-22.5 33.5h-7q-7 -18 -22.5 -33.5t-33.5 -22.5v-7q18 -7 33.5 -22.5t22.5 -33.5h7q7 18 22.5 33.5
t33.5 22.5zM418 90l-22 -2q-21 -36 -37 -46.5t-53 -10.5h-77q-24 0 -29 5.5t-5 32.5v161h163v28h-163v154l125 -2q32 -1 41.5 -8.5t18.5 -41.5l16 -1l-17 82h-232q-14 0 -43 3q-15 1 -25 2l-14 1l1 -14q6 0 11 -1q35 -4 45 -15.5t10 -43.5v-304q0 -32 -10 -43.5t-45 -15.5
q-5 -1 -11 -1l-1 -14l14 1q10 1 25 2q29 3 43 3h119q5 0 51 -1.5t63 -1.5l3 10q5 21 11.5 37t23.5 45z" />
    <glyph glyph-name="igrave" unicode="&#xec;" horiz-adv-x="345" 
d="M184 523l-51 169h-109l143 -169h17zM271 -5l-1 14q-6 0 -11 1q-35 4 -45 15.5t-10 43.5v304q0 32 10 43.5t45 15.5q5 1 11 1l1 14l-14 -1q-10 -1 -25 -2q-29 -3 -43 -3h-33q-14 0 -43 3q-15 1 -25 2l-14 1l1 -14q6 0 11 -1q35 -4 45 -15.5t10 -43.5v-304q0 -32 -10 -43.5
t-45 -15.5q-5 -1 -11 -1l-1 -14l14 1q10 1 25 2q29 3 43 3h33q14 0 43 -3q15 -1 25 -2z" />
    <glyph glyph-name="iacute" unicode="&#xed;" horiz-adv-x="345" 
d="M294 692h-109l-51 -169h17zM271 -5l-1 14q-6 0 -11 1q-35 4 -45 15.5t-10 43.5v304q0 32 10 43.5t45 15.5q5 1 11 1l1 14l-14 -1q-10 -1 -25 -2q-29 -3 -43 -3h-33q-14 0 -43 3q-15 1 -25 2l-14 1l1 -14q6 0 11 -1q35 -4 45 -15.5t10 -43.5v-304q0 -32 -10 -43.5
t-45 -15.5q-5 -1 -11 -1l-1 -14l14 1q10 1 25 2q29 3 43 3h33q14 0 43 -3q15 -1 25 -2z" />
    <glyph glyph-name="icircumflex" unicode="&#xee;" horiz-adv-x="345" 
d="M312 521l-93 161h-90l-92 -161h15l123 113l122 -113h15zM271 -5l-1 14q-6 0 -11 1q-35 4 -45 15.5t-10 43.5v304q0 32 10 43.5t45 15.5q5 1 11 1l1 14l-14 -1q-10 -1 -25 -2q-29 -3 -43 -3h-33q-14 0 -43 3q-15 1 -25 2l-14 1l1 -14q6 0 11 -1q35 -4 45 -15.5t10 -43.5
v-304q0 -32 -10 -43.5t-45 -15.5q-5 -1 -11 -1l-1 -14l14 1q10 1 25 2q29 3 43 3h33q14 0 43 -3q15 -1 25 -2z" />
    <glyph glyph-name="idieresis" unicode="&#xef;" horiz-adv-x="345" 
d="M325 578v7q-18 7 -33.5 22.5t-22.5 33.5h-7q-7 -18 -22.5 -33.5t-33.5 -22.5v-7q18 -7 33.5 -22.5t22.5 -33.5h7q7 18 22.5 33.5t33.5 22.5zM139 578v7q-18 7 -33.5 22.5t-22.5 33.5h-7q-7 -18 -22.5 -33.5t-33.5 -22.5v-7q18 -7 33.5 -22.5t22.5 -33.5h7q7 18 22.5 33.5
t33.5 22.5zM271 -5l-1 14q-6 0 -11 1q-35 4 -45 15.5t-10 43.5v304q0 32 10 43.5t45 15.5q5 1 11 1l1 14l-14 -1q-10 -1 -25 -2q-29 -3 -43 -3h-33q-14 0 -43 3q-15 1 -25 2l-14 1l1 -14q6 0 11 -1q35 -4 45 -15.5t10 -43.5v-304q0 -32 -10 -43.5t-45 -15.5q-5 -1 -11 -1
l-1 -14l14 1q10 1 25 2q29 3 43 3h33q14 0 43 -3q15 -1 25 -2z" />
    <glyph glyph-name="eth" unicode="&#xf0;" horiz-adv-x="628" 
d="M563 229q0 47 -20 87t-56 68.5t-84 44t-102 15.5q-16 0 -55.5 -1t-61.5 -2q-28 0 -52.5 1.5t-52.5 3.5l-14 1l1 -14q6 0 11 -1q35 -4 45 -15.5t10 -43.5v-126h-107v-42h107v-136q0 -32 -10 -43.5t-45 -15.5q-5 -1 -11 -1l-1 -14l14 1q10 1 25 2q29 3 43 3l154 -2
q55 0 103.5 18.5t84 50.5t55 74t19.5 87zM493 227q0 -41 -14.5 -78t-40.5 -65.5t-62 -45t-77 -16.5q-63 0 -83.5 12.5t-20.5 46.5v124h157v42h-157v169q14 1 53 2t51 1q39 0 74.5 -13.5t62.5 -39t42 -61t15 -78.5z" />
    <glyph glyph-name="ntilde" unicode="&#xf1;" horiz-adv-x="605" 
d="M437 619h-20q-1 -26 -14 -39.5t-31 -13.5q-12 0 -23 5.5t-29 16.5l-1 1l-1 1q-27 16 -40.5 22.5t-31.5 6.5q-40 0 -59 -26.5t-22 -70.5h20q0 26 13 39t30 13q10 0 17 -3t29 -16v0q33 -20 48 -26.5t35 -6.5q8 0 19 2t25 11t24.5 29.5t11.5 54.5zM540 -5l-1 14q-6 0 -11 1
q-35 4 -45 15.5t-10 43.5v304q0 32 10 43.5t45 15.5q5 1 11 1l1 14l-14 -1q-10 -1 -25 -2q-29 -3 -43 -3h-311q-14 0 -43 3q-15 1 -25 2l-14 1l1 -14q6 0 11 -1q35 -4 45 -15.5t10 -43.5v-304q0 -32 -10 -43.5t-45 -15.5q-5 -1 -11 -1l-1 -14l14 1q10 1 25 2q29 3 43 3h33
q14 0 43 -3q15 -1 25 -2l14 -1l-1 14q-6 0 -11 1q-35 4 -45 15.5t-10 43.5v339h215v-339q0 -32 -10 -43.5t-45 -15.5q-5 -1 -11 -1l-1 -14l14 1q10 1 25 2q29 3 43 3h33q14 0 43 -3q15 -1 25 -2z" />
    <glyph glyph-name="ograve" unicode="&#xf2;" horiz-adv-x="653" 
d="M343 523l-51 169h-109l143 -169h17zM588 228q0 51 -20 93.5t-56 72.5t-83.5 46.5t-101.5 16.5q-55 0 -103.5 -19t-84 -53t-55 -78.5t-19.5 -92.5q0 -51 20 -93t56 -72.5t84 -47t102 -16.5q56 0 104 19t83.5 53.5t54.5 78.5t19 92zM525 221q0 -4 1 -11v-11
q0 -78 -49 -130.5t-129 -52.5q-45 0 -83.5 16t-67 44.5t-46 65.5t-22.5 79q0 4 -1 11v11q0 78 49.5 130t128.5 52q90 0 149.5 -58.5t69.5 -145.5z" />
    <glyph glyph-name="oacute" unicode="&#xf3;" horiz-adv-x="653" 
d="M443 692h-109l-51 -169h17zM588 228q0 51 -20 93.5t-56 72.5t-83.5 46.5t-101.5 16.5q-55 0 -103.5 -19t-84 -53t-55 -78.5t-19.5 -92.5q0 -51 20 -93t56 -72.5t84 -47t102 -16.5q56 0 104 19t83.5 53.5t54.5 78.5t19 92zM525 221q0 -4 1 -11v-11q0 -78 -49 -130.5
t-129 -52.5q-45 0 -83.5 16t-67 44.5t-46 65.5t-22.5 79q0 4 -1 11v11q0 78 49.5 130t128.5 52q90 0 149.5 -58.5t69.5 -145.5z" />
    <glyph glyph-name="ocircumflex" unicode="&#xf4;" horiz-adv-x="653" 
d="M456 521l-93 161h-90l-92 -161h15l123 113l122 -113h15zM588 228q0 51 -20 93.5t-56 72.5t-83.5 46.5t-101.5 16.5q-55 0 -103.5 -19t-84 -53t-55 -78.5t-19.5 -92.5q0 -51 20 -93t56 -72.5t84 -47t102 -16.5q56 0 104 19t83.5 53.5t54.5 78.5t19 92zM525 221q0 -4 1 -11
v-11q0 -78 -49 -130.5t-129 -52.5q-45 0 -83.5 16t-67 44.5t-46 65.5t-22.5 79q0 4 -1 11v11q0 78 49.5 130t128.5 52q90 0 149.5 -58.5t69.5 -145.5z" />
    <glyph glyph-name="otilde" unicode="&#xf5;" horiz-adv-x="653" 
d="M457 619h-20q-1 -26 -14 -39.5t-31 -13.5q-12 0 -23 5.5t-29 16.5l-1 1l-1 1q-27 16 -40.5 22.5t-31.5 6.5q-40 0 -59 -26.5t-22 -70.5h20q0 26 13 39t30 13q10 0 17 -3t29 -16v0q33 -20 48 -26.5t35 -6.5q8 0 19 2t25 11t24.5 29.5t11.5 54.5zM588 228q0 51 -20 93.5
t-56 72.5t-83.5 46.5t-101.5 16.5q-55 0 -103.5 -19t-84 -53t-55 -78.5t-19.5 -92.5q0 -51 20 -93t56 -72.5t84 -47t102 -16.5q56 0 104 19t83.5 53.5t54.5 78.5t19 92zM525 221q0 -4 1 -11v-11q0 -78 -49 -130.5t-129 -52.5q-45 0 -83.5 16t-67 44.5t-46 65.5t-22.5 79
q0 4 -1 11v11q0 78 49.5 130t128.5 52q90 0 149.5 -58.5t69.5 -145.5z" />
    <glyph glyph-name="odieresis" unicode="&#xf6;" horiz-adv-x="653" 
d="M474 578v7q-18 7 -33.5 22.5t-22.5 33.5h-7q-7 -18 -22.5 -33.5t-33.5 -22.5v-7q18 -7 33.5 -22.5t22.5 -33.5h7q7 18 22.5 33.5t33.5 22.5zM288 578v7q-18 7 -33.5 22.5t-22.5 33.5h-7q-7 -18 -22.5 -33.5t-33.5 -22.5v-7q18 -7 33.5 -22.5t22.5 -33.5h7q7 18 22.5 33.5
t33.5 22.5zM588 228q0 51 -20 93.5t-56 72.5t-83.5 46.5t-101.5 16.5q-55 0 -103.5 -19t-84 -53t-55 -78.5t-19.5 -92.5q0 -51 20 -93t56 -72.5t84 -47t102 -16.5q56 0 104 19t83.5 53.5t54.5 78.5t19 92zM525 221q0 -4 1 -11v-11q0 -78 -49 -130.5t-129 -52.5
q-45 0 -83.5 16t-67 44.5t-46 65.5t-22.5 79q0 4 -1 11v11q0 78 49.5 130t128.5 52q90 0 149.5 -58.5t69.5 -145.5z" />
    <glyph glyph-name="divide" unicode="&#xf7;" horiz-adv-x="668" 
d="M368 525q0 14 -10.5 24t-24.5 10t-24.5 -9t-11.5 -23q0 -16 10.5 -27t25.5 -11q14 0 24.5 10.5t10.5 25.5zM598 296v51h-528v-51h528zM368 122q0 15 -10 25t-25 10t-25.5 -10t-10.5 -25q0 -14 10.5 -24.5t25.5 -10.5t25 10.5t10 24.5z" />
    <glyph glyph-name="oslash" unicode="&#xf8;" horiz-adv-x="653" 
d="M588 228q0 56 -24.5 101.5t-67.5 76.5l58 71l-20 19l-61 -75q-66 36 -146 36q-55 0 -103.5 -19t-84 -53t-55 -78.5t-19.5 -92.5q0 -56 24.5 -102t68.5 -77l-57 -70l19 -19l61 75q66 -36 146 -36q56 0 104 19t83.5 53.5t54.5 78.5t19 92zM525 221q0 -4 1 -11v-11
q0 -78 -49 -130.5t-129 -52.5q-76 0 -134 45l246 301q27 -28 44 -64t21 -77zM440 380l-246 -301q-56 57 -65 142q0 4 -1 11v11q0 78 49.5 130t128.5 52q76 0 134 -45z" />
    <glyph glyph-name="ugrave" unicode="&#xf9;" 
d="M312 523l-51 169h-109l143 -169h17zM540 447l-14 -1q-10 -1 -25 -2q-29 -3 -43 -3h-36q-14 0 -43 3q-15 1 -25 2l-14 1l1 -14q6 0 11 -1q35 -4 45 -15.5t10 -43.5v-4q-1 -153 -33 -243t-86 -120q-53 30 -85.5 119.5t-34.5 241.5v6q0 32 10 43.5t45 15.5q5 1 11 1l1 14
l-14 -1q-10 -1 -25 -2q-29 -3 -43 -3h-36q-14 0 -43 3q-15 1 -25 2l-14 1l1 -14q6 0 11 -1q35 -4 45 -15.5t10 -43.5v-6q2 -130 48 -231.5t138 -154.5q91 54 137 156.5t48 231.5v4q0 32 10 43.5t45 15.5q5 1 11 1z" />
    <glyph glyph-name="uacute" unicode="&#xfa;" 
d="M426 692h-109l-51 -169h17zM540 447l-14 -1q-10 -1 -25 -2q-29 -3 -43 -3h-36q-14 0 -43 3q-15 1 -25 2l-14 1l1 -14q6 0 11 -1q35 -4 45 -15.5t10 -43.5v-4q-1 -153 -33 -243t-86 -120q-53 30 -85.5 119.5t-34.5 241.5v6q0 32 10 43.5t45 15.5q5 1 11 1l1 14l-14 -1
q-10 -1 -25 -2q-29 -3 -43 -3h-36q-14 0 -43 3q-15 1 -25 2l-14 1l1 -14q6 0 11 -1q35 -4 45 -15.5t10 -43.5v-6q2 -130 48 -231.5t138 -154.5q91 54 137 156.5t48 231.5v4q0 32 10 43.5t45 15.5q5 1 11 1z" />
    <glyph glyph-name="ucircumflex" unicode="&#xfb;" 
d="M429 521l-93 161h-90l-92 -161h15l123 113l122 -113h15zM540 447l-14 -1q-10 -1 -25 -2q-29 -3 -43 -3h-36q-14 0 -43 3q-15 1 -25 2l-14 1l1 -14q6 0 11 -1q35 -4 45 -15.5t10 -43.5v-4q-1 -153 -33 -243t-86 -120q-53 30 -85.5 119.5t-34.5 241.5v6q0 32 10 43.5
t45 15.5q5 1 11 1l1 14l-14 -1q-10 -1 -25 -2q-29 -3 -43 -3h-36q-14 0 -43 3q-15 1 -25 2l-14 1l1 -14q6 0 11 -1q35 -4 45 -15.5t10 -43.5v-6q2 -130 48 -231.5t138 -154.5q91 54 137 156.5t48 231.5v4q0 32 10 43.5t45 15.5q5 1 11 1z" />
    <glyph glyph-name="udieresis" unicode="&#xfc;" 
d="M439 578v7q-18 7 -33.5 22.5t-22.5 33.5h-7q-7 -18 -22.5 -33.5t-33.5 -22.5v-7q18 -7 33.5 -22.5t22.5 -33.5h7q7 18 22.5 33.5t33.5 22.5zM253 578v7q-18 7 -33.5 22.5t-22.5 33.5h-7q-7 -18 -22.5 -33.5t-33.5 -22.5v-7q18 -7 33.5 -22.5t22.5 -33.5h7q7 18 22.5 33.5
t33.5 22.5zM540 447l-14 -1q-10 -1 -25 -2q-29 -3 -43 -3h-36q-14 0 -43 3q-15 1 -25 2l-14 1l1 -14q6 0 11 -1q35 -4 45 -15.5t10 -43.5v-4q-1 -153 -33 -243t-86 -120q-53 30 -85.5 119.5t-34.5 241.5v6q0 32 10 43.5t45 15.5q5 1 11 1l1 14l-14 -1q-10 -1 -25 -2
q-29 -3 -43 -3h-36q-14 0 -43 3q-15 1 -25 2l-14 1l1 -14q6 0 11 -1q35 -4 45 -15.5t10 -43.5v-6q2 -130 48 -231.5t138 -154.5q91 54 137 156.5t48 231.5v4q0 32 10 43.5t45 15.5q5 1 11 1z" />
    <glyph glyph-name="yacute" unicode="&#xfd;" horiz-adv-x="506" 
d="M402 692h-109l-51 -169h17zM506 447l-14 -1q-10 -1 -25 -2q-29 -3 -43 -3h-8q-14 0 -43 3q-15 1 -25 2l-14 1l1 -14q6 0 11 -1q42 -4 42 -27q0 -12 -13 -32l-94 -146l-98 146l-5 7q-16 24 -16 34q0 15 29 18q5 1 11 1l1 14l-14 -1q-5 0 -10 -1q-48 -4 -65 -4h-32
q-14 0 -43 3q-15 1 -25 2l-14 1l1 -14q6 0 11 -1q34 -3 56 -19t38 -40l125 -186v-118q0 -32 -10 -43.5t-45 -15.5q-5 -1 -11 -1l-1 -14l14 1q10 1 25 2q29 3 43 3h33q14 0 43 -3q15 -1 25 -2l14 -1l-1 14q-6 0 -11 1q-35 4 -45 15.5t-10 43.5v123l117 181l1 1q17 27 33.5 41
t48.5 17q5 1 11 1z" />
    <glyph glyph-name="thorn" unicode="&#xfe;" horiz-adv-x="460" 
d="M427 248q0 47 -43.5 79.5t-117.5 32.5q-20 0 -46 -1h-25v14q0 32 10 43.5t45 15.5q5 1 11 1l1 14l-14 -1q-10 -1 -25 -2q-29 -3 -43 -3h-33q-14 0 -43 3q-15 1 -25 2l-14 1l1 -14q6 0 11 -1q35 -4 45 -15.5t10 -43.5v-304q0 -32 -10 -43.5t-45 -15.5q-5 -1 -11 -1l-1 -14
l14 1q10 1 25 2q29 3 43 3h33q14 0 43 -3q15 -1 25 -2l14 -1l-1 14q-6 0 -11 1q-35 4 -45 15.5t-10 43.5v238q0 22 8 26.5t40 4.5q57 0 88.5 -31t31.5 -75q0 -52 -38 -83.5t-92 -31.5h-13v-13q10 -1 21 -1q37 0 71 10.5t59.5 30t40.5 46.5t15 58z" />
    <glyph glyph-name="ydieresis" unicode="&#xff;" horiz-adv-x="506" 
d="M411 578v7q-18 7 -33.5 22.5t-22.5 33.5h-7q-7 -18 -22.5 -33.5t-33.5 -22.5v-7q18 -7 33.5 -22.5t22.5 -33.5h7q7 18 22.5 33.5t33.5 22.5zM225 578v7q-18 7 -33.5 22.5t-22.5 33.5h-7q-7 -18 -22.5 -33.5t-33.5 -22.5v-7q18 -7 33.5 -22.5t22.5 -33.5h7q7 18 22.5 33.5
t33.5 22.5zM506 447l-14 -1q-10 -1 -25 -2q-29 -3 -43 -3h-8q-14 0 -43 3q-15 1 -25 2l-14 1l1 -14q6 0 11 -1q42 -4 42 -27q0 -12 -13 -32l-94 -146l-98 146l-5 7q-16 24 -16 34q0 15 29 18q5 1 11 1l1 14l-14 -1q-5 0 -10 -1q-48 -4 -65 -4h-32q-14 0 -43 3q-15 1 -25 2
l-14 1l1 -14q6 0 11 -1q34 -3 56 -19t38 -40l125 -186v-118q0 -32 -10 -43.5t-45 -15.5q-5 -1 -11 -1l-1 -14l14 1q10 1 25 2q29 3 43 3h33q14 0 43 -3q15 -1 25 -2l14 -1l-1 14q-6 0 -11 1q-35 4 -45 15.5t-10 43.5v123l117 181l1 1q17 27 33.5 41t48.5 17q5 1 11 1z" />
    </font>
</defs>
</svg>
